<?xml version="1.0" encoding="utf-8"?>
<!-- Generator: Adobe Illustrator 23.0.2, SVG Export Plug-In . SVG Version: 6.00 Build 0)  -->
<svg version="1.1" id="Layer_1" xmlns="http://www.w3.org/2000/svg" xmlns:xlink="http://www.w3.org/1999/xlink" x="0px" y="0px"
	 viewBox="0 0 4896.36 1679.54" style="enable-background:new 0 0 4896.36 1679.54;" xml:space="preserve">
<g>
	<g>
		<path d="M2157.43,929.82c3.53,1.62,6.06,2.84,8.63,3.95c2.13,0.92,3.98,0.4,5.63-1.22c1.63-1.61,3.18-3.42,5.09-4.62
			c2.74-1.73,6.19-0.22,6.44,2.97c1.01,12.92,5.79,25.09,7.26,37.89c0.55,4.84,0.78,9.75,0.61,14.61c-0.1,2.89-0.08,5.59,0.94,8.31
			c3.57,9.52,4.85,19.48,5.19,29.55c0.25,7.2,0.01,14.42-0.07,21.63c-0.1,8.49-0.25,16.99-0.42,25.48
			c-0.11,5.67,0.17,11.54-2.72,16.61c-2.17,3.81-2.62,7.64-2.53,11.81c0.08,3.86-0.16,7.73-0.18,11.59
			c-0.03,5.96-0.83,11.8-2.41,17.55c-1.85,6.7-3.58,13.43-5.49,20.11c-1.44,5.02-2.17,10.06-1.32,15.25c0.6,3.69,0,7.19-1.66,10.51
			c-1.76,3.52-2.69,7.08-2.23,11.14c0.51,4.53-0.98,8.7-4.3,11.96c-1.89,1.86-3.09,4-4.07,6.44c-3.97,9.9-9.71,18.74-16.7,26.75
			c-3.89,4.46-7.89,8.88-12.24,12.87c-10.07,9.22-20.23,18.34-30.63,27.18c-12.73,10.83-27.1,18.66-43.53,22.46
			c-4.26,0.98-8.45,2.27-12.63,3.57c-9.89,3.07-19.99,4.79-30.33,5.5c-4.57,0.32-9.15,1.41-13.57,2.69
			c-8.23,2.38-16.38,4.19-25.08,2.81c-4.27-0.67-8.74-0.16-13.12-0.07c-8.5,0.18-16.99,0.62-25.49,0.63
			c-85.02,0.05-170.05,0.04-255.07-0.01c-4.88,0-9.76-0.42-14.63-0.88c-5.37-0.5-9.18-3.46-10.98-8.49
			c-5.32-14.84-9.79-29.82-8.22-45.96c0.55-5.61,0.19-11.33-0.08-16.98c-0.44-9.3-0.35-18.52,1.65-27.67
			c0.36-1.67,0.19-3.59-0.24-5.27c-1.39-5.39-1.21-10.7,0.27-16.02c0.55-1.98,0.94-4.02,1.59-5.96c2.89-8.65,2.65-17.17-0.55-25.72
			c-1.26-3.36-2.07-6.91-2.78-10.43c-1.45-7.18-1.38-14.35,0.89-21.38c2.08-6.43,2.95-13.03,3.12-19.76c0.08-3.35,0-6.72,0.43-10.03
			c1-7.76,0.78-15.4-1.37-22.96c-1.17-4.12-0.9-8.21,1.01-12.05c1.13-2.28,1.16-4.39,0.14-6.65c-0.53-1.17-0.91-2.41-1.24-3.66
			c-1.84-7.03-2.84-13.88-0.5-21.22c3.97-12.47,3.66-25.44,2.27-38.3c-0.66-6.12-2.29-12.13-3.33-18.21
			c-0.56-3.29-1.12-6.63-1.16-9.95c-0.27-21.89-0.43-43.79-0.55-65.68c-0.05-9.78,0.09-19.56,0.1-29.35
			c0.01-5.71,0.3-11.36,3.18-16.49c1.24-2.21,1.06-4.4,0.33-6.7c-0.77-2.45-1.52-4.92-2.03-7.43c-0.52-2.57,0.54-4.57,2.93-5.69
			c2.1-0.98,4.24-1.87,6.42-2.64c3.86-1.38,7.53-3.12,11-5.19c-0.22-3.74-2.39-5.21-5.38-5.86c-2.26-0.5-4.56-0.83-6.8-1.41
			c-5.33-1.4-8.32-4.97-8.95-10.38c-0.33-2.8-0.35-5.65-0.35-8.48c-0.02-26.54-0.01-53.08-0.01-79.61c0-1.8,0.17-3.63-0.03-5.41
			c-0.81-7.26-0.18-14.14,2.97-20.99c2.47-5.39,2.35-11.54,2.33-17.5c-0.12-44.06-0.22-88.11-0.3-132.17
			c-0.01-6.18,0.12-12.36,0.27-18.54c0.14-5.51-0.78-10.71-3.48-15.63c-1.07-1.95-1.81-4.31-1.9-6.52
			c-0.47-11.58-0.8-23.17-0.95-34.75c-0.12-9.12,1.51-18.05,5.28-26.32c3.04-6.67,1.81-12.51-1.61-18.32
			c-2.21-3.76-4.68-7.36-6.96-10.91c3.28-4.96,6.36-9.67,9.49-14.34c1.75-2.6,3.9-4.85,6.78-6.17c3.73-1.71,7.45-3.53,11.34-4.81
			c4.8-1.57,9.66-1.19,14.29,1.05c6.43,3.11,13.35,3.75,20.33,3.83c13.65,0.17,27.29,0.19,40.94,0.32
			c41.48,0.38,82.95,0.53,124.42-0.58c7.99-0.21,15.97-0.16,23.75-2.39c3.1-0.89,6.16-0.38,9.09,0.76
			c8.22,3.19,15.99,2.51,23.74-1.82c6.9-3.85,14.42-3.94,21.7-1.2c9.06,3.41,18.49,4.37,27.97,5.33c13.07,1.32,26.09,2.88,38.7,6.91
			c5.37,1.72,11.03,2.55,16.52,3.91c4.49,1.11,9.03,2.15,13.39,3.68c7.95,2.81,9.41,4.61,11.83,13.23c4.77,0.91,9.28-2.1,14.67-1.71
			c8.22,7.46,17.37,14.61,25.07,23.3c3.78,4.27,7.43,8.68,6.66,14.8c0.71,0.8,1.12,1.54,1.74,1.91c7.2,4.37,12.67,10.44,17.38,17.31
			c4.22,6.16,8.38,12.38,12.82,18.37c8.17,11.04,12.57,23.52,14.8,36.92c1.01,6.09,1.74,12.25,4.9,17.77
			c1.44,2.51,0.69,5.22-0.56,7.42c-4.28,7.58-3.65,15.29-1.28,23.19c3.23,10.73,3.72,21.81,3.72,32.9c0,6.18-0.59,12.35-0.8,18.53
			c-0.24,6.98-1.17,13.69-3.79,20.33c-3.68,9.33-3.39,19.34-1.81,29.01c1.66,10.16,0.88,19.98-1.21,29.89
			c-1.86,8.81-3.41,17.68-5.38,26.47c-0.66,2.96-1.76,5.98-3.35,8.55c-9.62,15.58-19.91,30.71-32.47,44.11
			c-4.21,4.5-9.06,8.39-13.57,12.61c-3.57,3.34-7.15,6.67-10.58,10.16c-1.23,1.26-2.22,2.87-2.94,4.49
			c-1.26,2.83-0.84,5.58,1.35,7.86c1.06,1.1,2.27,2.1,3.53,2.97c3.39,2.34,6.87,4.55,10.27,6.87c3.4,2.32,6.72,4.75,10.14,7.05
			c3.19,2.15,6.4,4.28,9.7,6.25c2.65,1.58,5.51,2.81,8.17,4.37c5.39,3.16,9.21,7.65,9.78,14.03c0.35,3.95,2.42,6.02,5.67,7.48
			c8.96,4.03,14.6,11.05,18.44,19.9c2.04,4.7,4.61,9.19,7.16,13.65c3.45,6.03,3.02,10.09-2.62,13.96
			C2167.34,918.62,2162.94,923.88,2157.43,929.82z M2007.06,581.5c1.64,3.13,3.05,6.41,5.81,8.81c1.83,1.59,3.86,1.7,5.44,0.02
			c1.53-1.64,3.22-3.27,3.41-6.03c-0.46-0.68-0.91-1.63-1.61-2.33c-4.31-4.3-5.85-4.44-11.21-1.22c-0.65,0.39-1.38,0.64-2.07,0.95
			c0.88-2.86,0.23-5.58-0.75-8.27c-1.28-3.52-3.56-6.22-6.82-8.03c-3.78-2.1-7.65-0.32-9.18,3.72c-1.44,3.78,0.06,8.79,4.28,11.24
			c2.27,1.32,4.71,1.97,7.37,1.65C2003.48,581.81,2005.25,581.7,2007.06,581.5z M1971.74,975.22c-0.01,0-0.01,0-0.02,0
			c0-1.8-0.22-3.63,0.04-5.39c1.12-7.68-0.58-14.89-3.82-21.73c-2.42-5.1-5.27-10-8.13-14.87c-3.51-5.99-7.52-11.7-10.78-17.82
			c-5.19-9.72-13.04-15.7-23.64-18.24c-7-1.68-13.99-3.42-21.03-4.89c-10.11-2.11-20.29-3.26-30.66-2.22
			c-3.48,0.35-6.5,1.37-9.15,3.57c-1.39,1.15-2.81,2.25-4.17,3.44c-6.16,5.41-8.84,11.94-6.04,20.01c1.48,4.25,1.97,8.34,0.54,12.79
			c-1.2,3.73-1.22,7.62,1.7,10.93c0.64,0.72,1.18,1.81,1.21,2.74c0.23,6.67,1.35,13.53,0.18,19.97c-1.55,8.58-1.11,16.83,0.05,25.28
			c0.45,3.26,0.56,6.72-0.01,9.94c-1.02,5.8-2.55,11.52-4.07,17.22c-1.42,5.32-2.43,10.77-0.26,15.91
			c3.6,8.54,4.22,17.39,4.32,26.45c0.15,12.34,0.57,24.68,0.89,37.02c0.04,1.54,0.06,3.1,0.26,4.62c0.67,4.93,2.5,9.49,5.42,13.45
			c6.16,8.36,15.85,11.32,26.16,7.76c9.08-3.14,18.37-4.84,27.92-5.49c3.85-0.26,7.7-0.65,11.5-1.32
			c11.5-2.04,20.86-7.46,26.18-18.23c2.73-5.51,4.84-11.35,6.95-17.14c1.68-4.61,2.25-9.45,2.26-14.4
			c0.01-12.86,0.19-25.73,0.35-38.59c0.07-6.16,0.07-12.34,0.46-18.48c0.17-2.75,0.74-5.67,1.95-8.12
			c2.35-4.76,3.24-9.73,3.43-14.91C1971.83,981.4,1971.74,978.31,1971.74,975.22z M1843.79,709.05c0.42,0.9,0.51,1.58,0.86,1.77
			c6.61,3.44,9.99,8.95,12,16.1c2.56,9.14,10.78,14.7,20.39,14.78c11.84,0.09,23.67-0.04,35.51-0.08c1.03,0,2.06-0.08,3.08-0.14
			c2.64-0.16,5.01-0.98,7.06-2.73c4.69-4.01,9.53-7.86,14.1-12.01c6.02-5.47,10.31-12.03,12.41-20.04
			c1.92-7.32,5.03-14.07,11.46-18.71c0.41-0.3,0.74-0.71,1.09-1.09c3.74-4.01,3.83-5.71,0.53-9.97c-2.05-2.64-4.1-5.28-6.13-7.93
			c-1.73-2.26-2.1-4.58-0.42-7.11c2.23-3.35,2.59-7.18,2.76-11.08c0.13-3.07,0.27-6.19,0.87-9.19c0.44-2.21,1.35-4.44,2.54-6.36
			c4.3-6.94,4.35-7.14-1.13-13.1c-0.52-0.57-1.05-1.13-1.59-1.69c-3.69-3.82-5.85-8.29-6.63-13.62c-1.12-7.63-2.72-15.19-3.96-22.8
			c-3.24-19.85-14.83-32.19-33.83-38.03c-4.4-1.35-8.8-2.8-13.05-4.55c-3.78-1.56-7.29-2.39-10.88,0.34
			c-3.01,2.28-6.24,1.95-9.48,0.45c-0.93-0.43-1.89-0.81-2.82-1.26c-3.28-1.58-6.46-1.27-9.6,0.41c-4.75,2.53-9.52,5.03-13.98,7.39
			c-2.08,5.73-4.03,11.03-5.92,16.36c-2.03,5.76-2.41,11.51-0.09,17.33c0.75,1.88,1.07,3.95,1.39,5.96c0.53,3.29,1,6.59,1.3,9.91
			c0.32,3.57,0.74,7.17,0.51,10.72c-0.48,7.47-0.45,14.89,0.21,22.35c0.7,7.94,1.41,15.99-0.27,23.84
			c-1.6,7.48-1.33,14.83-0.1,22.23c0.94,5.64,0.62,11.17,0.16,16.86c-0.49,6.13-2.08,10.89-7.77,13.74
			C1844.18,708.18,1844.11,708.51,1843.79,709.05z M1953.99,580.29c1.92,9.29,4.79,12,13.23,13.04c0.51,0.06,1.03,0.05,1.54,0.11
			c3.91,0.45,7,2.32,8.04,6.17c1.69,6.3,6.76,9.63,11.41,13.03c5.92,4.33,15.99,0.57,18.57-6.43c0.43-1.17,0.61-2.52,0.53-3.77
			c-0.26-4.15-2.07-7.29-6.09-9.02c-6.38-2.74-10.88-7.6-14.56-13.33c-1.81-2.81-3.61-5.62-5.4-8.44c-1.7-2.69-3.92-4.73-7.52-5.88
			C1966.86,569.67,1960.47,574.74,1953.99,580.29z M1719.16,905.72c3.46-1.11,5.41-3.52,6.88-6.23c1.36-2.51,3.33-3.78,6.01-4.23
			c1.01-0.17,2.04-0.34,3.02-0.63c7.63-2.27,10.2-6.59,9.03-15.19c-4.27-1.84-8.55-1.02-12.8,0.13c-5.19,1.4-7.17,6.2-10.07,10.12
			c-5-0.85-9.72-1.66-14.6-2.49c-1.19,2.93-1.99,5.72-0.11,7.72C1710.33,898.97,1714.22,903.09,1719.16,905.72z M2092,460.52
			c2.75-1.35,4.24-3.05,4.19-5.63c-0.07-3.32,0.13-6.76-0.66-9.93c-1.44-5.82-4.82-10.8-8.43-15.5c-2.33-3.03-6.8-3.61-9.79-1.8
			c-2.9,1.75-4.1,5.76-2.51,9.56c1.69,4.03,3.53,8.01,5.6,11.85C2083.02,453.91,2086.71,457.8,2092,460.52z M2091.69,666.78
			c1.34,0.74,2.17,1.4,3.12,1.69c3.44,1.06,4.87,0.32,5.55-3.14c0.74-3.78,1.69-7.64,1.59-11.44c-0.13-4.84-1.11-9.67-1.98-14.46
			c-0.34-1.85-2.24-2.71-4.24-2.54c-2.45,0.21-3.97,1.46-4,3.79C2091.64,649.42,2091.69,658.15,2091.69,666.78z M2033.36,629.88
			c-5.84,1.49-6.27,1.77-7.58,4.06c-1.34,2.36-1.54,4.83-0.73,7.37c1,3.12,3.48,5.02,6.12,4.79c3.1-0.27,6.1-3.54,6.05-6.81
			c-0.02-1.24-0.26-2.57-0.76-3.7C2035.66,633.75,2034.56,632.04,2033.36,629.88z M2010.88,698.83c4.95-0.2,5.87-0.41,7.81-2.14
			c2.14-1.9,3.65-4.22,4.23-7.08c0.39-1.91,0.07-3.5-1.72-4.62c-1.99-1.25-3.75-1.21-5.51,0.49c-3.21,3.09-5.42,6.74-5.55,11.34
			C2010.12,697.5,2010.63,698.19,2010.88,698.83z M2093.32,496.04c1.37-2.06,1.74-3.85,0.47-5.45c-3.21-4.02-6.48-8-9.89-11.86
			c-1.82-2.07-2.79-1.73-5.16,1.33C2082.71,487.41,2086.61,491.75,2093.32,496.04z M1724.6,1053.42c1.79,5.15,5.54,7.12,10.75,6.83
			c1.77-0.1,2.88-0.96,3.3-2.64c0.82-3.3-0.23-5.6-3.41-6.72c-1.89-0.66-4-1.13-5.96-1.01
			C1727.19,1050.01,1725.63,1051.55,1724.6,1053.42z M1845.61,1059.15c-1.65-1.63-3.11-3.34-4.83-4.72
			c-2.04-1.64-4.4-1.37-6.05,0.61c-0.94,1.13-1.69,2.5-2.21,3.89c-0.79,2.11-0.08,3.95,1.65,5.38c1.57,1.29,3.31,1.31,4.98,0.51
			C1841.65,1063.63,1843.84,1061.98,1845.61,1059.15z M1671.81,851.03c0.9,4.56,1.77,6.2,4.08,7.67c3.09,1.97,6.95,1,8.32-2.33
			c0.42-1.02,0.46-2.94-0.17-3.51c-1.84-1.66-3.95-3.26-6.24-4.08C1675.57,847.97,1673.3,848.96,1671.81,851.03z M2053.62,603.86
			c0.66-0.19,1.4-0.37,2.1-0.62c0.47-0.17,0.94-0.41,1.35-0.71c2.09-1.54,2.7-3,2.01-5.22c-1.19-3.82-3.31-6.67-7.54-7.24
			C2047.37,597.6,2047.51,598.43,2053.62,603.86z M2013.13,657.95c2.45-1.93,4.39-4.02,3.62-7.17c-0.89-3.65-3.1-6.27-6.89-7.14
			c-2.86,2.51-2.47,5.61-1.95,8.62C2008.37,654.89,2009.67,657.03,2013.13,657.95z M2111.71,876.07c-0.44-0.66-0.62-1.25-1-1.44
			c-4.72-2.39-11.58,0.84-12.55,5.88c-0.32,1.66,1.54,3.65,3.26,3.31C2106.13,882.87,2109.92,880.7,2111.71,876.07z M1692.07,816.84
			c-4.37-1.07-7.14,0.46-10.49,2.08c1.47,2.8,2.75,5.21,4.02,7.63c0.82,1.58,2.15,2.1,3.79,1.67c1.62-0.43,2.61-1.58,2.66-3.27
			C1692.13,822.44,1692.07,819.94,1692.07,816.84z M1973.67,654.75c0.97,2.3,2.28,3.92,4.68,3.26c3.32-0.91,5.9-2.96,7.21-6.23
			c0.32-0.81,0.25-2.15-0.24-2.8c-0.5-0.67-1.78-1.19-2.63-1.08C1978.36,648.46,1975.34,650.82,1973.67,654.75z M1758.71,611.39
			c-2.35-0.12-4.47,2.43-3.75,4.19c1.31,3.19,3.47,5.68,6.73,7c1.6,0.65,3.89-0.28,4.68-1.77c0.81-1.55,0.48-3.08-0.68-4.22
			c-1.63-1.62-3.43-3.07-5.24-4.5C1759.89,611.65,1759.07,611.53,1758.71,611.39z M1859,517.37c-1.3-2.17-2.05-4.1-3.39-5.43
			c-0.9-0.89-2.71-1.37-4.01-1.21c-1.81,0.22-3.16,1.6-3.36,3.59c-0.12,1.24-0.07,2.52,0.12,3.75c0.36,2.23,2.48,3.65,4.45,2.8
			C1854.81,520.02,1856.64,518.73,1859,517.37z M2061.01,735.24c1.4-1,3.18-1.72,3.96-3.03c0.64-1.08,0.33-2.91,0.03-4.33
			c-0.41-1.92-1.91-2.86-3.85-3.11c-2.27-0.3-4.02,0.63-5.11,2.5c-1.04,1.79-0.26,3.46,1.08,4.78
			C2058.18,733.11,2059.43,733.97,2061.01,735.24z M2013.26,884.05c2.91-1.47,3.95-3.81,4.75-6.19c0.27-0.81-0.07-2.04-0.55-2.83
			c-1.15-1.9-3.88-2.46-6.11-1.47c-1.98,0.88-2.92,2.85-2.52,5.01C2009.29,881.05,2010.86,882.6,2013.26,884.05z M1727.96,841.19
			c-1.36,2.17-2.02,3.26-2.71,4.33c-0.41,0.64-0.93,1.21-1.3,1.86c-1.08,1.93-0.62,4.13,1.06,5.44c1.65,1.28,4.29,1.12,6.36-0.38
			c1.48-1.08,2.15-3.01,1.22-4.73C1731.65,845.99,1730.33,844.49,1727.96,841.19z M2114.31,557.23c-2.81,1.54-4.18,3.34-5.02,5.56
			c-0.74,1.95,0.01,3.49,1.49,4.76c1.5,1.29,3.67,1.61,4.97,0.76c2.26-1.49,3.29-5.13,1.87-7.41
			C2116.84,559.65,2115.63,558.66,2114.31,557.23z M2005.88,533.62c-0.71-0.59-1.82-2.26-2.81-2.18c-4.17,0.3-7.39,5.62-6.02,9.69
			c0.24,0.71,1.56,1.65,2.22,1.53C2002.63,542.06,2005.98,537.65,2005.88,533.62z M2061.5,628.85c2.18-1.93,3.5-3.71,3.68-6.12
			c0.12-1.62-0.33-3.19-1.8-3.89c-2.13-1-4.42-1.05-6.5,0.32c-1.19,0.79-1.53,2.02-1.03,3.32
			C2056.87,625.16,2058.56,627.29,2061.5,628.85z M2000.96,1049.76c-0.73-0.6-1.43-1.3-2.25-1.84c-0.83-0.56-1.73-1.08-2.66-1.42
			c-3.61-1.31-6.12,0.63-5.68,4.36c0.09,0.75,0.23,1.5,0.46,2.21c0.73,2.22,2.82,3.14,4.8,2.06
			C1997.83,1053.93,1999.93,1052.55,2000.96,1049.76z M2019.65,777.51c0.97-1.43,1.71-2.44,2.36-3.5c0.39-0.64,0.91-1.39,0.88-2.07
			c-0.04-1.2-0.12-2.63-0.77-3.54c-1.47-2.05-4.67-2.34-6.9-0.95c-1.27,0.79-1.88,2.65-1.18,4.03
			C2015.19,773.77,2016.61,775.86,2019.65,777.51z M2066.13,415.8c-4.09-0.44-6.73,0.6-9.22,2.11c0.45,2.98,2.32,4.43,4.04,5.87
			c0.82,0.69,2.11,0.82,3.75,1.4C2065.2,421.91,2065.61,419.22,2066.13,415.8z M2068.85,508.63c3.33-3.55,3.63-5.48,1.38-7.5
			c-0.89-0.8-2.27-1.58-3.35-1.5c-1.31,0.1-2.56,1.14-4.45,2.07C2064.74,504.2,2066.61,506.21,2068.85,508.63z M1768.17,900.02
			c-2-1.04-3.44-2.03-5.04-2.54c-1.59-0.51-2.98,0.32-3.86,1.73c-0.97,1.56-0.72,3.75,0.47,4.92c1.43,1.41,2.93,0.65,4.14-0.19
			C1765.29,902.97,1766.43,901.64,1768.17,900.02z M2081.62,1225.77c0.81,0.53,1.36,1.09,2.01,1.28c1.79,0.49,3.57,0.44,4.82-1.21
			c1.31-1.72,0.51-3.34-0.45-4.9c-0.53-0.86-1.1-1.7-1.83-2.83C2083.57,1220.71,2082.06,1222.84,2081.62,1225.77z M2069.01,780.29
			c2.23-1.73,4.38-3.39,7.01-5.42c-1.65-1.3-2.81-2.2-3.89-3.05C2066.64,775.18,2066.64,775.18,2069.01,780.29z M1922.53,781.63
			c2.41,0.38,4.55,0.88,6.71,0.98c0.84,0.04,1.81-0.71,2.57-1.29c0.95-0.71,0.63-2.79-0.39-3.19
			C1927.81,776.7,1925.24,777.6,1922.53,781.63z M2078.61,919.9c0.75,3.88,2.62,5.27,5.38,5.75c1.54,0.27,3.31-0.98,3.39-2.37
			c0.08-1.47-1.14-3.23-2.57-3.34C2083.06,919.79,2081.27,919.9,2078.61,919.9z M2086.48,1255.29c3.1-3.34,3.24-3.88,1.58-5.4
			c-0.92-0.84-1.91-1.74-3.04-2.13c-0.75-0.26-1.92,0.16-2.67,0.64c-0.34,0.22-0.41,1.54-0.08,1.98
			C2083.43,1251.96,2084.8,1253.37,2086.48,1255.29z M2039.75,852.19c0.82-1.54,1.77-2.55,1.75-3.53c-0.02-1.01-0.95-2.03-1.61-2.95
			c-0.12-0.16-1.03-0.03-1.32,0.24c-0.93,0.9-1.52,2.04-0.87,3.33C2038.14,850.12,2038.79,850.83,2039.75,852.19z M1742.8,857.52
			c2.24-2.74,2.24-2.74-0.21-5.59C1740.45,854.74,1740.45,854.74,1742.8,857.52z M2045.47,1165.81c-0.12-0.21-0.19-0.52-0.37-0.63
			c-2.72-1.64-4.05-1.63-4.84,0.1c-0.17,0.37-0.15,1.16,0.07,1.31c0.78,0.51,1.66,1.05,2.56,1.15
			C2044.18,1167.88,2045.22,1167.27,2045.47,1165.81z M1843.85,601.75c-1.45-0.64-2.67-1.34-3.97-1.65
			c-0.38-0.09-1.13,0.88-1.51,1.49c-0.18,0.3-0.04,1.03,0.22,1.32C1839.92,604.35,1841.36,604.1,1843.85,601.75z M1703.6,973.36
			c-0.97-1.02-1.6-2.1-2.52-2.47c-0.39-0.16-1.73,1.05-2.02,1.86c-0.48,1.35,1.42,3.59,2.4,3.06
			C1702.23,975.4,1702.69,974.44,1703.6,973.36z M1956.11,465.28c-1.87-0.6-2.91-1.04-3.99-1.19c-0.2-0.03-0.96,1.4-0.76,1.74
			c0.43,0.73,1.31,1.62,2.03,1.65C1954.05,467.5,1954.73,466.45,1956.11,465.28z M1885.18,798.05c-0.73-0.52-1.47-1.46-2.29-1.54
			c-0.89-0.08-1.97,0.49-2.72,1.09c-0.33,0.27-0.32,1.52,0.01,1.95c1.14,1.45,1.95,1.3,4.51-0.5
			C1884.87,798.92,1884.91,798.61,1885.18,798.05z M1957.2,881.38c0.63-1.62,1.06-2.48,1.28-3.39c0.09-0.4-0.17-0.96-0.42-1.35
			c-0.25-0.39-0.64-0.8-1.06-0.96c-0.38-0.15-1-0.16-1.32,0.06C1954.33,876.67,1954.57,878.04,1957.2,881.38z M2030.15,558.24
			c-1.28-1.17-2.07-1.9-2.86-2.62c-0.55,0.75-1.48,1.47-1.53,2.24c-0.05,0.85,0.73,1.74,1.14,2.62
			C2027.79,559.87,2028.69,559.25,2030.15,558.24z M1725.41,714.23c-2.12,3.2-2.12,3.2-0.09,5.87
			C1727.64,717.75,1727.64,717.75,1725.41,714.23z M2081.27,590.5c-1.92,3.12-2.12,4.48-0.77,5.32c0.42,0.26,1.47,0.01,1.89-0.37
			c0.46-0.42,0.86-1.38,0.68-1.9C2082.73,592.52,2081.97,591.64,2081.27,590.5z M2119.93,1032.18c0.86-1.16,1.85-1.88,1.86-2.63
			c0.03-1.61-1.41-1.69-2.66-1.72c-1.18-0.03-2.12,0.73-1.8,1.7C2117.65,1030.46,2118.81,1031.1,2119.93,1032.18z M2113.24,523.05
			c-1.08-1.22-1.83-2.07-2.58-2.92c-0.44,0.77-1.24,1.54-1.24,2.3c0,0.81,0.76,1.62,1.18,2.43
			C2111.35,524.36,2112.09,523.85,2113.24,523.05z M2110.23,1237.76c-2.19-2.53-2.98-2.87-4.66-1.82c-0.32,0.2-0.61,1.01-0.46,1.3
			c1.08,2.06,2.77,1.76,4.51,0.98C2109.86,1238.12,2110.03,1237.92,2110.23,1237.76z M2122.74,1071.6
			c-0.56,0.19-0.84,0.23-1.04,0.37c-1.57,1.14-1.58,2.52-0.35,3.84c0.4,0.43,1.5,0.78,1.91,0.53c1.77-1.03,1.24-2.49,0.37-3.88
			C2123.51,1072.26,2123.28,1072.12,2122.74,1071.6z M2109.74,1005.39c-0.19-0.2-0.33-0.44-0.54-0.56c-1.21-0.68-2.48-0.77-3.43,0.3
			c-0.3,0.34-0.2,1.56,0.15,1.85c1.07,0.88,2.33,0.87,3.32-0.24C2109.54,1006.4,2109.59,1005.82,2109.74,1005.39z M2181.27,1035.89
			c-0.98,1.69-1.28,3.3-0.35,4.98c0.19,0.35,0.74,0.68,1.13,0.68c0.42,0.01,1.13-0.3,1.22-0.61
			C2183.86,1038.91,2183.82,1037.02,2181.27,1035.89z M2027.2,1189.23c-0.83,1.95-1.6,2.97-1.61,3.99
			c-0.01,1.07,1.17,1.86,2.17,1.37c0.67-0.33,1.28-1.5,1.28-2.29C2029.05,1191.57,2028.21,1190.83,2027.2,1189.23z M1967.63,542.03
			c0.49,0.3,0.98,0.6,1.48,0.9c0.24-0.75,0.7-1.52,0.67-2.26c-0.04-0.92-0.47-1.82-0.74-2.73c-0.57,0.24-1.59,0.43-1.62,0.71
			C1967.31,539.76,1967.53,540.9,1967.63,542.03z M1937.83,442.6c0.23-0.42,0.45-0.85,0.68-1.27c-0.67-0.26-1.35-0.75-2-0.71
			c-0.9,0.05-1.9,0.32-2.63,0.83c-0.61,0.42,0.46,1.93,1.5,1.87C1936.21,443.27,1937.01,442.85,1937.83,442.6z M1677.25,983
			c-0.41-0.95-0.48-1.56-0.81-1.81c-1.22-0.9-2.46-0.6-3.36,0.47c-0.19,0.22,0.37,1.6,0.65,1.62
			C1674.83,983.37,1675.96,983.14,1677.25,983z M1761.44,668.18c-1.8,0.33-2.39,1.38-2.14,2.75c0.11,0.58,0.9,1.03,1.39,1.54
			c0.46-0.47,1.27-0.92,1.3-1.41C1762.04,670.11,1761.65,669.14,1761.44,668.18z M1979.07,804.76c0-0.22,0.09-0.57-0.01-0.63
			c-0.74-0.5-1.48-1.1-2.31-1.33c-0.27-0.07-0.82,0.86-1.25,1.33c0.76,0.41,1.48,0.92,2.29,1.17
			C1978.12,805.41,1978.64,804.96,1979.07,804.76z M1749.64,875.68c-0.43-0.16-0.86-0.32-1.3-0.48c-0.14,0.45-0.43,0.93-0.36,1.34
			c0.04,0.21,0.95,0.54,1.06,0.42C1749.35,876.65,1749.45,876.13,1749.64,875.68z M1998.42,881.28c-0.38-0.25-0.71-0.47-1.04-0.69
			c-0.05,0.23-0.17,0.47-0.15,0.7c0.02,0.23,0.17,0.44,0.26,0.66C1997.8,881.73,1998.1,881.51,1998.42,881.28z M1724.7,1010.94
			c-0.19,0.4-0.38,0.79-0.57,1.19c0.44,0.2,0.88,0.39,1.33,0.59c0.17-0.44,0.35-0.89,0.52-1.33
			C1725.55,1011.24,1725.13,1011.09,1724.7,1010.94z M1872.64,401.12c0.44,0.18,0.88,0.36,1.32,0.53c0.14-0.43,0.47-0.92,0.36-1.28
			c-0.07-0.26-0.9-0.6-1.07-0.47C1872.92,400.15,1872.83,400.7,1872.64,401.12z M1991.79,476.59c-0.23,0.35-0.52,0.68-0.67,1.06
			c-0.06,0.15,0.19,0.42,0.31,0.63c0.37-0.25,0.73-0.51,1.1-0.76C1992.28,477.21,1992.04,476.9,1991.79,476.59z M1731.69,1225.52
			c-0.35-0.17-0.71-0.34-1.06-0.51c-0.07,0.2-0.24,0.53-0.2,0.57c0.32,0.23,0.69,0.4,1.04,0.59
			C1731.54,1225.95,1731.62,1225.73,1731.69,1225.52z M1992.98,721c-0.43-0.2-0.84-0.44-1.29-0.56c-0.12-0.03-0.51,0.42-0.49,0.45
			c0.23,0.32,0.53,0.86,0.77,0.84C1992.32,721.7,1992.64,721.26,1992.98,721z M1731.54,921.73c-0.05,0.4-0.09,0.71-0.13,1.02
			c0.13-0.13,0.35-0.25,0.38-0.39C1731.81,922.2,1731.66,922.01,1731.54,921.73z M2110.12,987.77c-0.08,0.2-0.25,0.44-0.21,0.63
			c0.04,0.19,0.29,0.33,0.45,0.49c0.1-0.37,0.2-0.74,0.3-1.12C2110.49,987.77,2110.3,987.77,2110.12,987.77z M2074.95,917.34
			c0.63,0.25,1.06,0.47,1.51,0.57c0.09,0.02,0.43-0.52,0.39-0.57c-0.26-0.3-0.59-0.72-0.92-0.74
			C2075.64,916.59,2075.32,917.04,2074.95,917.34z M1997.45,745.74c0.2-0.05,0.4-0.09,0.61-0.14c-0.07-0.22-0.09-0.48-0.23-0.65
			c-0.05-0.06-0.51,0.06-0.52,0.14C1997.28,745.3,1997.4,745.53,1997.45,745.74z M1956.61,542.96l-0.07,0.44l0.59-0.15
			L1956.61,542.96z M1808.62,1107.4c-0.47-0.13-0.76-0.22-1.05-0.3c0.06,0.19,0.11,0.54,0.18,0.54
			C1807.96,1107.65,1808.19,1107.53,1808.62,1107.4z M2129.12,530.84c-0.15-0.16-0.33-0.48-0.44-0.46c-0.4,0.09-0.77,0.29-1.15,0.44
			c0.16,0.15,0.35,0.44,0.47,0.42C2128.39,531.17,2128.75,530.98,2129.12,530.84z M2099.67,905.24c-0.03-0.2,0.02-0.49-0.09-0.57
			c-0.16-0.11-0.43-0.07-0.65-0.09c0.04,0.29,0.08,0.59,0.13,0.88C2099.26,905.39,2099.46,905.32,2099.67,905.24z M2164.25,1184.7
			c0.17-0.05,0.5-0.1,0.5-0.15c0-0.22-0.09-0.44-0.15-0.66c-0.16,0.06-0.45,0.1-0.45,0.17
			C2164.12,1184.26,2164.21,1184.48,2164.25,1184.7z M1938.66,1220.37c0.17-0.12,0.44-0.2,0.5-0.35c0.07-0.2-0.04-0.46-0.07-0.69
			c-0.25,0.15-0.53,0.28-0.74,0.48C1938.31,1219.84,1938.55,1220.17,1938.66,1220.37z M1808.02,833.65l-0.05,0.36l0.5-0.13
			L1808.02,833.65z M1915.09,869.2l-0.5,0.19l0.49,0.2L1915.09,869.2z M2004.38,632.59c-0.16-0.42-0.33-0.84-0.49-1.27
			c-0.18,0.16-0.54,0.34-0.51,0.46c0.08,0.43,0.28,0.83,0.43,1.24C2004,632.88,2004.19,632.74,2004.38,632.59z M1695.58,862.89
			c-0.17,0.12-0.34,0.24-0.51,0.36c0.11,0.15,0.22,0.31,0.34,0.46c0.24-0.2,0.48-0.4,0.72-0.6
			C1695.95,863.04,1695.77,862.97,1695.58,862.89z"/>
		<path d="M860.22,491.06c4.67,0.13,7.62,3.03,9.73,6.67c1.66,2.86,2.97,6.01,3.89,9.19c4.13,14.35,7.99,28.77,10.48,43.53
			c0.55,3.25,1.9,6.37,2.71,9.59c1.01,3.97,2.36,7.95,2.64,11.99c0.45,6.66,0.37,13.39,0.09,20.07c-0.13,3.03-0.66,6.34-2.07,8.94
			c-3.55,6.53-3.43,13.35-2.83,20.34c0.13,1.53,0.27,3.07,0.41,4.61c1.38,1.58,3.11,2.93,3.94,4.69c0.96,2.04,1.33,4.43,1.6,6.71
			c0.35,2.86,1.02,5.49,2.62,7.96c2.86,4.42,3.11,9.22,1.1,14.04c-4.16,9.97-5.41,20.46-4.34,31.02
			c1.62,15.97-0.55,31.41-5.55,46.44c-4.06,12.2-8.86,24.17-13.63,36.11c-3.05,7.63-8.25,13.65-15.6,17.56
			c-6.31,3.36-10.28,8.21-11.52,15.45c-1.22,7.14-5.2,12.84-10.78,17.36c-2.8,2.26-5.67,4.54-8.82,6.22
			c-9.86,5.26-16.05,13.47-19.94,23.68c-0.83,2.16-1.72,4.31-2.37,6.53c-1.28,4.39,0.63,9.07,5.05,9.68
			c7.93,1.09,13.29,6.12,19.54,10.17c10.35,6.72,9.49,7.92,14.13,16.7c7.71,14.56,15.74,28.97,22,44.25
			c3.9,9.52,7.64,19.13,9.45,29.32c0.85,4.81,1.15,9.71,3.11,14.29c0.38,0.88,0.67,2.2,0.28,2.94c-1.79,3.43-0.36,6.47,0.68,9.66
			c2.01,6.2,2.17,12.68,1.88,19.07c-0.13,2.95-1.67,5.87-2.74,8.74c-0.9,2.4-2.11,4.68-3.06,7.06c-1.3,3.26-1.28,6.56,0.26,9.75
			c5.08,10.54,5.81,21.76,5.28,33.2c-0.47,10.29-0.94,20.58-1.3,30.87c-0.29,8.25,0.2,16.44,1.57,24.63
			c0.76,4.53,0.93,9.25,0.66,13.84c-0.42,6.87,0.72,13.36,3.52,19.55c1.89,4.19,2.54,8.2,0.55,12.61c-1.64,3.64-1.3,7.63-0.38,11.41
			c1.7,7.02,3.48,13.96,2.89,21.32c-0.13,1.56,0.92,3.49,1.98,4.81c5.48,6.79,8.43,14.64,10.46,23c2.37,9.74,4.52,19.51,8.52,28.83
			c2.76,6.44,2.08,13.59,1.88,20.2c-4.9,4.08-9.42,7.88-13.97,11.64c-3.84,3.18-8.07,5.46-13.19,5.84c-1.78,0.13-3.53,0.68-5.3,1
			c-3.35,0.61-6.63,0.57-9.87-0.76c-6.74-2.76-13.93-3.56-21.03-4.78c-6.07-1.04-12.14-2.22-18.1-3.77
			c-4.92-1.28-9.59-1.65-14.28,0.62c-4.15,2.01-8.49,1.87-12.82,0.71c-2.73-0.73-5.44-1.57-8.13-2.45
			c-5.11-1.67-10.1-1.9-14.94,0.91c-0.64,0.37-1.44,0.46-2.04,0.65c-5.12-2.13-10.09-4.24-15.08-6.26
			c-1.66-0.67-3.38-1.26-5.13-1.65c-1.89-0.42-3.57,0.13-4.72,1.84c-0.29,0.43-0.57,0.86-0.78,1.33
			c-3.62,8.13-11.08,10.22-18.79,11.63c-1.87,0.34-4.16-0.27-5.95-1.1c-5.39-2.5-10.43-5.63-14.75-9.77
			c-4.98-4.78-8.38-10.56-9.44-17.35c-1.14-7.27-3.9-13.83-7.27-20.24c-3.59-6.85-6.74-13.88-8.72-21.41
			c-1.26-4.8-1.89-9.62-1.24-14.53c0.42-3.16-0.02-6.08-1.02-9.09c-3.59-10.85-5.2-22.05-5.03-33.46
			c0.12-7.98,0.62-15.95,0.91-23.92c0.28-7.72,0.49-15.45,0.77-23.17c0.06-1.72,0.25-3.44,0.43-5.85c2.9,0.94,5.25,1.69,8.04,2.59
			c1.72-1.01,3.67-2.16,5.43-3.21c0.63-3.3-0.34-5.49-2.94-6.79c-5.64-2.8-7.02-7.55-6.92-13.45c0.44-27.04,0.69-54.09,0.97-81.13
			c0.04-3.6-0.2-7.2-0.26-10.81c-0.06-3.34-0.4-6.73-0.01-10.03c2.04-17.22-2.68-32.6-12.25-46.74
			c-5.81-8.59-13.34-15.68-20.39-23.17c-1.79-1.9-4.01-3.15-6.67-3.64c-10.43-1.94-20.51-5.06-30.08-9.59
			c-3.18-1.5-5.92-0.66-8.95-0.03c-4.84,1-8.38,3.19-10.6,7.9c-2.4,5.11-5.59,9.85-8.26,14.85c-3.19,5.99-4.98,12.37-5.05,19.24
			c-0.02,2.27-0.37,4.65-1.14,6.78c-4.24,11.73-2.68,22.78,3.42,33.42c1.28,2.23,2.55,4.49,3.5,6.87
			c3.06,7.66,2.04,15.17-3.64,20.85c-6.14,6.14-7.8,12.68-6.47,20.98c0.76,4.74-0.03,9.76-0.35,14.64
			c-0.64,9.66,0.51,18.91,4.35,27.95c1.77,4.17,2.35,8.95,2.9,13.52c0.74,6.15,1.28,12.3,3.43,18.16c1.03,2.82,0.68,5.64-0.16,8.35
			c-2.67,8.59-3.92,17.6-7.73,25.87c-2.36,5.11-1.92,10.1,1.71,14.5c4.93,5.99,5.24,13.27,5.75,20.43c0.13,1.89-0.82,4-1.72,5.8
			c-2,4.03-2.81,8.25-2.73,12.7c0.1,5.66-0.08,11.34,0.28,16.99c0.23,3.56,1.09,7.11,1.92,10.61c0.86,3.59,0.93,7.02-0.01,10.65
			c-1.62,6.26-2.07,12.7-1.89,19.17c0.14,4.78-1.19,9.2-3.56,13.26c-4.5,7.69-11.23,12.01-20.18,12.21c-8.49,0.19-17-0.06-25.5-0.13
			c-3.61-0.03-7.21-0.2-10.82-0.16c-4.96,0.06-9.82,0.92-14.08,3.53c-4.16,2.54-8.59,3.18-13.32,3.1
			c-23.95-0.39-47.9-0.71-71.85-1.07c-4.38-0.07-8.75-0.25-13.13-0.32c-8.73-0.14-15.11-3.93-19.56-11.56
			c-4.91-8.41-7.4-17.54-8.84-26.99c-2.01-13.15-1.47-26.21,2.47-39c2.24-7.26,2.87-14.72,2.19-22.18
			c-1.39-15.32,0.49-30.31,3.39-45.29c1.42-7.32,2.61-14.72,3.33-22.14c0.43-4.49,1.7-8.52,3.64-12.47c1.7-3.46,3.38-6.94,5-10.44
			c2.29-4.95,1.64-9.51-1.97-13.62c-1.02-1.16-1.98-2.38-3.05-3.49c-7.57-7.88-10.52-17.59-10.64-28.19
			c-0.2-16.48-0.13-32.97-0.04-49.45c0.04-7.31-0.85-14.37-4.05-21.04c-1.6-3.35-1.69-6.88-1.3-10.57c0.4-3.81,0.2-7.69,0.2-11.54
			c0-3.34,0-6.69-0.12-10.03c-0.18-4.88-0.07-9.82-0.82-14.62c-0.54-3.48-1.95-6.93-3.55-10.1c-1.75-3.49-1.39-6.42,0.91-9.31
			c0.96-1.21,2.02-2.34,3.06-3.48c4.57-4.99,6.84-10.95,6.75-17.62c-0.27-19.83-0.67-39.66-1.21-59.48
			c-0.08-2.76-1.18-5.5-1.94-8.22c-0.56-1.98-1.41-3.87-1.99-5.85c-1.07-3.63-0.68-7.17,1.18-10.46c1.39-2.46,2.91-4.85,4.46-7.22
			c2.39-3.65,2.37-7.24-0.12-10.8c-1.18-1.69-2.36-3.39-3.69-4.96c-2.64-3.13-3.71-6.68-3.45-10.74
			c1.72-27.02,0.41-54.08,0.77-81.12c0.05-3.6-0.19-7.2-0.46-10.8c-0.72-9.5,0.69-18.63,5.85-26.7c3.1-4.85,3.7-9.43,1.43-14.57
			c-1.65-3.74-1.58-7.5-0.04-11.25c1.75-4.26,1.61-8.36,0.06-12.76c-1-2.83-1.06-6.08-1.05-9.15c0.02-22.41,0.19-44.82,0.27-67.23
			c0.04-11.59,0.04-23.19,0-34.78c-0.02-7.02,0.82-13.8,3.88-20.29c2.43-5.14,2.33-10.58-0.44-15.62
			c-2.31-4.21-3.17-8.62-3.25-13.34c-0.06-4.11-0.22-8.25-0.79-12.31c-0.43-3.02-1.59-5.93-2.64-9.61
			c2.99-7.93,2.71-16.95,2.52-25.98c-0.14-6.69-0.46-13.36,0.97-20.01c2.78-12.98,10.36-21.52,22.94-25.74
			c5.02-1.68,9.43-1.6,13.52,2.41c4.78,4.68,10.73,6.89,17.45,7.22c2.27,0.11,4.52,0.9,6.73,1.54c2.97,0.86,5.85,2.02,8.84,2.79
			c5.08,1.3,10.12,1.14,15.26-0.21c5.46-1.44,11.01-2.72,16.6-3.37c6.69-0.78,13.16-2.32,19.66-3.94
			c5.73-1.43,11.52-2.78,17.35-3.66c8.28-1.25,16.46-0.57,24.26,2.76c3.83,1.64,7.77,2.61,11.93,2.94
			c5.9,0.47,11.84,0.84,17.66,1.83c5.49,0.93,10.75,0.46,16.07-0.73c2.5-0.56,5.04-1.09,7.59-1.31c6.77-0.59,12.7,1.4,17.65,6.17
			c1.65,1.59,3.04,3.58,6.28,3.91c0.84-1.02,2.35-2.18,2.92-3.69c1.34-3.51,3.76-4.65,7.59-4.22c0.26,2.7,0.52,5.46,0.81,8.41
			c2.26,2.74,5.26,4.68,8.58,6.14c1.86,0.82,3.79-0.53,3.73-2.5c-0.02-0.51-0.14-1.02-0.27-1.52c-1.59-6.14,1.34-8.22,5.8-10
			c1.65-0.66,3.42-1.12,5.18-1.38c12.14-1.75,24.25-1.15,35.96,2.33c16.08,4.77,32.44,8.17,48.84,11.48
			c8.35,1.69,16.48,4.11,24.22,7.74c2.1,0.98,4.19,1.71,6.66,1.49c5.38-0.49,10.11,1.46,14.4,4.58
			c9.58,6.96,19.27,13.77,28.66,20.98c8.02,6.16,14.42,14,20.33,22.12c6.52,8.95,12.45,18.32,18.84,27.36
			c2.03,2.87,1.51,5.83,1.45,8.88c-3.49,0.79-5.33,2.83-4.7,6.52c0.09,0.56,0.84,1.32,1.37,1.4c0.58,0.08,1.45-0.36,1.86-0.86
			C860.84,496.21,860.11,493.55,860.22,491.06z M653.45,550.27c-3.02,0.03-4.42,2.12-5.8,4.4c-3.41,5.66-3.83,5.72-9.49,2.34
			c-0.66-0.4-1.29-0.85-1.95-1.25c-5.6-3.38-11.63-5.31-18.15-6.02c-7.49-0.82-14.93-0.17-22.35,0.46
			c-5.38,0.46-9.77,3.21-13.15,7.34c-4.89,5.97-6.65,12.55-3.87,20.15c3.95,10.8,3.63,21.65-0.01,32.54
			c-1.46,4.37-2.38,8.95-3.19,13.49c-0.79,4.42-2.17,8.33-5.4,11.67c-6.49,6.7-7.9,14.94-5.78,23.68c1.69,6.98,3.89,13.87,6.3,20.64
			c2.33,6.53,5.16,12.89,7.9,19.27c0.89,2.07,1.03,3.99-0.16,5.88c-2.76,4.38-2.94,9.21-2.68,14.16c0.17,3.34,0.36,6.7,0.2,10.04
			c-0.44,9.09,2.94,16.57,9.2,22.92c1.99,2.02,3.99,4.03,6.08,5.93c5.11,4.64,11.15,6.24,17.9,5.03c2.53-0.45,4.99-1.24,7.47-1.93
			c15.37-4.27,30.63-8.99,46.72-9.85c3.45-0.19,6.59-1.47,9.12-3.77c9.26-8.44,15.69-18.45,16.03-31.4
			c0.18-6.79,1.02-13.33,4.42-19.34c1.66-2.93,1.39-5.95,0.08-8.91c-0.73-1.65-1.58-3.24-2.41-4.84c-1.46-2.8-2.07-5.75-2.01-8.93
			c0.11-5.92,0.14-11.84-0.01-17.75c-0.18-7.04,0.15-13.92,4.34-19.99c-3.43-7.03-4.59-14.29-4.29-21.88
			c0.46-11.56-3.5-21.7-10.44-30.79c-1.09-1.43-2.28-2.79-3.33-4.25c-1.34-1.87-1.37-3.88-0.11-5.78c1.13-1.71,2.5-3.27,3.64-4.97
			c0.95-1.43,1.72-2.98,2.47-4.29c-4.26-5.67-4.34-5.73-9.82-7.53c-1.82,2.08-3.6,4.28-5.56,6.32c-1.81,1.89-4.55,1.75-5.88-0.59
			c-2.27-4-4.15-8.22-6.2-12.35c5.52,2.06,11.13,3.81,17.07,5.18c1.43-2.05,2.87-3.84,4-5.81c1.44-2.5,0.77-4.51-1.81-5.65
			c-2.82-1.25-5.7-2.39-8.59-3.46c-8.06-2.99-11.71-0.18-11.08,8.51C652.9,549.34,653.24,549.8,653.45,550.27z M580.6,492.35
			c-4.5,0.44-6.7,2.91-8.56,5.69c-1.34,2-1.58,4.25-0.77,6.58c0.69,1.99,2.63,3.42,4.65,3.14c3.11-0.43,5.87-1.58,7.92-4.13
			c1.75-2.18,2.02-3.81,0.5-6.27C583.28,495.66,581.94,494.13,580.6,492.35z M630.81,475.66c5.56,3.69,8.22,3.9,12.43,1.32
			c2.27-1.39,2.9-3.41,1.87-5.97c-1.01-2.51-2.87-3.52-5.56-2.77C635.71,469.32,632.53,471.3,630.81,475.66z M566.86,553.28
			c2.42-2.65,3.18-5.26,2.65-8.21c-0.46-2.6-1.34-5.1-4.14-5.93c-2.58-0.77-4.34,0.88-5.81,2.76c-0.29,0.37-0.32,0.94-0.59,1.79
			C560.84,547.1,561.29,551.86,566.86,553.28z M549.39,499.73c2.32,2.22,5.13,1.95,7.88,1.64c3.44-0.38,4.69-1.74,5.4-5.3
			c0.36-1.82-0.59-2.87-2-3.63c-2.56-1.37-5.04-0.39-7.21,0.81C551.06,494.58,548.66,496.26,549.39,499.73z M782.44,1191.64
			c-0.19-3.48-2.28-6.09-4.68-5.84c-3.41,0.35-5.42,2.31-5.34,5.2c0.11,3.58,2.08,5.73,4.93,5.37
			C780.23,1195.99,782.56,1193.82,782.44,1191.64z M733.12,602.74c2.47-2.57,4.35-4.54,6.25-6.52c-6.1-5.42-6.76-5.48-12.63-1.23
			C728.65,597.33,730.56,599.64,733.12,602.74z M457.28,430.34c-1.46-1.12-2.62-2.09-3.87-2.92c-0.62-0.41-1.39-0.69-2.13-0.78
			c-1.59-0.21-3.04,0.15-4.07,1.52c-1.39,1.87-0.93,4.7,1.13,6.94c1.32,1.43,3.38,1.29,5.35-0.59
			C454.94,433.32,455.97,431.88,457.28,430.34z M525.75,986.8c-1.08-2.29-2.9-2.94-4.63-2.26c-2.32,0.9-4.54,2.25-6.5,3.79
			c-0.75,0.59-1.13,2.39-0.84,3.4c0.47,1.62,2.17,2.28,3.76,1.88C521.4,992.64,524.49,990.64,525.75,986.8z M741.44,662.82
			c2.75-1.65,4.25-3.28,4.9-5.61c0.48-1.72-0.28-3.65-1.81-4.6c-2-1.25-4.61-1.06-6.34,0.47c-1.32,1.17-1.85,3.35-0.84,4.84
			C738.46,659.57,739.89,660.99,741.44,662.82z M428.5,756.92c-1.99,1.66-3.26,2.5-4.24,3.59c-1.68,1.88-2.03,4.05-1.01,5.48
			c1.26,1.79,3.1,2.49,5.24,2.37c2.37-0.13,4.32-2.6,3.5-4.77C431.21,761.53,429.96,759.65,428.5,756.92z M497.89,455.14
			c-1.08,1.84-2.23,3.47-3.03,5.27c-0.9,2.02,0.3,4.3,2.29,4.9c2.95,0.89,6.19,0.07,6.74-1.89c0.25-0.87,0.13-2.09-0.31-2.87
			C502.32,458.33,500.66,456.42,497.89,455.14z M840.08,553.69c-1.14-1.46-1.75-3.03-2.61-3.18c-2.23-0.39-4.58-0.32-6.84-0.05
			c-0.65,0.08-1.56,1.4-1.61,2.2c-0.05,0.8,0.63,2.03,1.35,2.42C833.39,556.71,836.26,555.93,840.08,553.69z M448.39,1063.09
			c-2.77,1.67-4.66,3.48-5.93,5.91c2.68,2.47,3.47,2.51,6.32,0.48C450.64,1068.16,450.64,1067.68,448.39,1063.09z M883.11,627.87
			c-2.05-1.34-4.04-0.82-5.9-0.04c-1.28,0.53-1.95,1.85-1.38,3.12c0.31,0.69,1.51,1.36,2.32,1.37
			C881,632.36,882.91,631.1,883.11,627.87z M826.36,595.15c3.29-1.53,4.06-3.34,3.36-5.41c-0.26-0.76-1.82-1.08-3.36-1.92
			C826.36,590.56,826.36,592.5,826.36,595.15z M513.93,410.25c-3.75-2.27-3.75-2.27-6.78,0.06
			C510.25,412.6,510.25,412.6,513.93,410.25z M412.62,719.16c2.2-3.13,2.2-3.13-0.06-5.89
			C410.27,716.02,410.27,716.02,412.62,719.16z M484.55,1210.95c-1.21-0.56-2.41-1.41-3.7-1.59c-0.64-0.09-1.84,0.94-2.05,1.67
			c-0.15,0.53,0.76,1.75,1.46,2.06C482.04,1213.87,483.63,1213.5,484.55,1210.95z M739.05,1270.75c2.43-2.36,2.68-3.58,0.91-5.4
			c-0.34-0.35-1.52-0.41-1.89-0.1c-1.54,1.29-1.4,2.6,0.33,5.14C738.53,1270.57,738.83,1270.63,739.05,1270.75z M661.99,523.17
			c0.44,0.52,0.82,1.39,1.38,1.54c1.54,0.42,3.02,0.09,3.75-1.55c0.16-0.36,0.05-1.06-0.22-1.37c-1.3-1.52-2.65-0.84-3.91,0.1
			C662.62,522.18,662.39,522.66,661.99,523.17z M537.68,594.17c-3.23-1.94-3.23-1.94-5.82,0.34
			C534.35,596.61,534.35,596.61,537.68,594.17z M738.92,1051.41c-1.95,1.69-2.66,3.21-0.93,4.87c0.33,0.31,1.53,0.27,1.86-0.07
			C741.52,1054.5,740.68,1053,738.92,1051.41z M442.18,611.86c-2.19,1.91-2.56,3.65-0.87,5.45c0.29,0.31,1.53,0.27,1.84-0.06
			C444.97,615.34,444.07,613.69,442.18,611.86z M690.65,540.79c-0.34,1.89-0.7,2.68-0.55,3.34c0.2,0.86,0.7,1.73,1.31,2.36
			c0.17,0.18,1.53-0.33,1.77-0.81c0.39-0.79,0.66-1.96,0.34-2.69C693.2,542.26,692.11,541.86,690.65,540.79z M542.5,569.75
			c0.34-0.03,0.73,0.04,0.81-0.09c0.48-0.74,1.12-1.5,1.25-2.32c0.07-0.45-0.68-1.37-1.2-1.51c-1.53-0.4-1.47,0.99-1.51,1.86
			C541.81,568.37,542.27,569.07,542.5,569.75z M644.55,498.43c1.88,2.61,1.88,2.61,5.06,1.52
			C647.82,497.4,647.82,497.4,644.55,498.43z M614.66,404.94c-0.13-0.33-0.26-0.66-0.43-0.97c-0.01-0.02-0.48,0.17-0.47,0.19
			c0.09,0.34,0.23,0.67,0.36,1.01C614.29,405.09,614.47,405.02,614.66,404.94z M424.85,909.07c-0.13-0.19-0.27-0.38-0.4-0.57
			c-0.32,0.23-0.65,0.45-0.93,0.72c-0.03,0.02,0.23,0.35,0.36,0.54C424.2,909.53,424.53,909.3,424.85,909.07z M721.2,517.49
			c0-0.19,0-0.37,0-0.56c-0.29,0.12-0.58,0.24-0.88,0.36c0.11,0.16,0.2,0.43,0.33,0.45C720.82,517.76,721.02,517.58,721.2,517.49z
			 M732.63,1224.19c0.47-0.14,0.94-0.28,1.41-0.43c-0.2-0.42-0.3-1.03-0.63-1.21c-0.28-0.15-0.83,0.21-1.26,0.35
			C732.31,1223.33,732.46,1223.76,732.63,1224.19z M483.93,914.19c-0.16,0.14-0.48,0.31-0.47,0.42c0.05,0.4,0.23,0.78,0.35,1.17
			c0.16-0.14,0.48-0.31,0.46-0.43C484.23,914.96,484.06,914.58,483.93,914.19z M419.26,606.05c-0.11-0.18-0.21-0.36-0.32-0.54
			c-0.15,0.14-0.45,0.37-0.43,0.41c0.15,0.25,0.37,0.45,0.56,0.67C419.14,606.41,419.2,606.23,419.26,606.05z M703.99,1015.68
			c-0.21-0.4-0.42-0.79-0.64-1.19c-0.2,0.15-0.56,0.3-0.56,0.45c0,0.42,0.14,0.84,0.23,1.27
			C703.35,1016.03,703.67,1015.85,703.99,1015.68z M787.29,1004.16c-0.31-0.21-0.61-0.46-0.95-0.61c-0.08-0.03-0.31,0.29-0.47,0.44
			c0.35,0.24,0.69,0.49,1.04,0.73C787.04,1004.54,787.16,1004.35,787.29,1004.16z"/>
		<path d="M2716.22,731.3c6.59,1.36,12.39,2.42,18.12,3.76c8.77,2.05,13.1,7.3,13.69,16.29c0.1,1.54,0.03,3.09,0.03,4.64
			c0,28.08-0.05,56.17,0.05,84.25c0.02,5.71-0.32,11.33-1.88,16.82c-1.01,3.57-1.03,6.99,0.03,10.62
			c2.34,8.02,2.03,16.34,1.85,24.57c-0.13,6.22-3.22,9.24-9.4,10.25c-1.89,0.31-4.28-0.67-5.5,2.32c0.99,0.93,2.04,2.01,3.18,2.97
			c1.15,0.96,2.4,1.8,3.6,2.69c-3.18,4.29-6,6.44-9.93,6.39c-4.98-0.07-9.72,0.98-14.48,2.05c-7.04,1.59-13.81,0.95-20.36-2.06
			c-1.17-0.54-2.31-1.13-3.51-1.61c-2.26-0.91-4.5-1.06-6.64,0.38c-5.39,3.64-11.48,4.19-17.75,4.18
			c-15.72-0.03-31.44,0.19-47.15-0.06c-5.1-0.08-10.19-1.21-15.26-2.02c-3.04-0.49-6.04-1.28-9.05-1.96
			c-7.47-1.68-14.81-1.55-22,1.41c-6.07,2.5-12.34,3.23-18.93,2.51c-4.31-0.47-8.71-0.09-13.31-0.09
			c-3.41,5.21-6.65,10.15-9.86,15.1c-1.68,2.59-3.32,5.21-4.97,7.83c-1.57,2.51-3.88,3.97-6.58,5.1c-2.84,1.19-5.46,1.07-8.16-0.28
			c-2.72-1.36-5.55-1.33-8.17,0.12c-3.06,1.69-5.81,1.07-8.83-0.19c-4.78-2-4.84-1.72-8.42,2.27c-2.21,2.47-4.71,4.71-7.27,6.82
			c-1.48,1.22-2.6,2.43-2.77,4.38c-0.2,2.29,1.61,4.05,3.8,3.55c1.25-0.28,2.44-0.8,3.66-1.2c3.1-1.01,6.21-1.05,8.88,0.9
			c3.76,2.74,7.59,2.74,11.68,1.07c1.16-0.47,2.41-0.71,3.32-0.97c2.82,1.33,2.77,3.44,2.26,5.44c-0.56,2.18-1.52,4.25-2.45,6.77
			c1.94,0.79,3.53,1.53,5.18,2.1c1.7,0.58,3.52,0.84,5.18,1.51c2.85,1.17,4.74,3.36,4.58,6.51c-0.26,5.1,0.29,10.36-2.23,15.13
			c-2.23,4.21-1.94,8.41-0.1,12.65c0.62,1.41,1.33,2.83,1.65,4.32c1.21,5.64-1.84,10.47-8.31,9.81c-1.54-0.16-3.06-0.64-4.58-0.63
			c-1.77,0.02-3.61,0.2-5.29,0.72c-2.93,0.91-4.06,3.35-2.9,6.06c0.71,1.64,1.67,3.19,2.67,4.69c1.43,2.16,3.48,2.95,6.03,2.35
			c0.5-0.12,1.01-0.22,1.49-0.4c4.26-1.53,6.81,0.72,8.99,3.96c3.37,5.01,2.66,8.27-2.54,11.52c-1.72,1.07-3.53,2.09-5.01,3.44
			c-1.41,1.29-1.23,3.62,0.16,4.83c1.16,1.01,2.47,1.84,3.75,2.72c7.02,4.81,10.68,11.67,12.14,19.87c0.18,1.01,0.37,2.05,0.36,3.07
			c-0.05,11.16,6.78,17.93,15.2,23.57c1.62,1.09,3.81,1.7,5.78,1.83c5.13,0.34,10.31,0.54,15.44,0.31c3.29-0.15,6.65-0.87,9.8-1.89
			c7.55-2.44,14.8-2.18,21.54,2.08c5,3.15,9.59,2.71,14.49-0.12c3.1-1.79,6.39-3.41,9.79-4.52c9.75-3.18,19.32-2.09,28.6,2.01
			c2.35,1.04,4.57,2.37,6.91,3.45c3.86,1.79,7.83,2.4,12.02,1.14c7.98-2.41,16.21-2.85,24.48-2.78c7.73,0.07,15.45,0.34,23.18,0.41
			c3.19,0.03,6.07,0.73,8.73,2.57c8.06,5.59,17.13,8.23,26.83,8.74c9.52,0.5,19.04,0.86,28.56,1.12c2.81,0.07,5.68-0.2,8.44-0.75
			c3.15-0.62,6.15-0.3,9.16,0.51c4.74,1.26,8.3,4,10.43,8.49c2.43,5.12,4.92,10.21,7.26,15.37c3.32,7.32,4.29,14.72,1.03,22.43
			c-2.03,4.8-2.26,9.99-2.22,15.19c0.06,7.72,0.14,15.45-0.2,23.16c-0.61,13.67-0.4,16.46,3.79,29.88
			c-4.04,8.65-4.96,18.03-4.12,27.68c0.13,1.53,0.01,3.09,0.04,4.64c0.09,6.24-1.75,11.64-6.6,15.84c-1.55,1.34-2.96,2.87-4.35,4.39
			c-3.19,3.52-7.05,3.88-11.31,2.52c-0.49-0.16-0.94-0.42-1.41-0.62c-11.43-4.97-23.13-4.95-34.71-1.03
			c-7.71,2.61-15.45,3.59-23.52,3.46c-12.88-0.2-25.77,0.01-38.65-0.09c-4.63-0.03-9.26-0.41-13.88-0.7
			c-4.16-0.26-8.21-1.14-11.82-3.24c-3.44-2-6.81-2.3-10.24-0.33c-5.1,2.93-10.65,3.52-16.39,3.61c-4.88,0.07-9.77,0.42-14.63,0.85
			c-15.03,1.33-25.94-4.8-32.52-18.46c-1.12-2.32-2.06-4.72-3.09-7.08c-4.6-10.51-11.31-19.59-18.84-28.13
			c-4.07-4.62-9.87-6.42-14.99-9.31c-1.69-0.95-3.65-0.21-4.79,1.41c-1.47,2.1-2.94,4.27-3.96,6.61
			c-4.13,9.42-8.29,18.84-12.02,28.42c-2,5.16-4.69,9.7-8.47,13.67c-5.1,5.34-11.34,7.9-18.71,7.61
			c-8.23-0.33-16.46-0.69-24.69-1.07c-6.52-0.3-12.8,0.75-18.94,2.99c-2.89,1.06-5.87,1.86-8.84,2.66
			c-4.66,1.25-9.2,0.73-13.57-1.27c-6.24-2.85-12.86-3.48-19.61-3.57c-17.25-0.23-34.51-0.56-51.76-0.79
			c-10.05-0.13-20.11-0.57-30.13-0.08c-8.89,0.44-14.08-3.5-17.1-11.37c-1.67-4.36-2.91-8.79-2.91-13.51
			c0.01-23.45-0.02-46.89,0.02-70.34c0-2.04,0.23-4.12,0.64-6.12c3.77-18.75,5.53-37.7,5.46-56.82c-0.08-21.9-0.27-43.8-0.32-65.7
			c-0.02-8.76,0.21-17.52,0.34-26.28c0.01-1.03,0.02-2.06,0.12-3.09c0.36-3.76,2.53-6.13,6-7.26c1.7-0.55,3.57-0.57,5.29-1.08
			c1.93-0.57,4.03-1.06,4.82-3.88c-0.7-0.45-1.45-1.08-2.31-1.44c-2.14-0.88-4.37-1.54-6.49-2.46c-4.68-2.05-7.22-5.64-7.37-10.81
			c-0.04-1.54-0.05-3.09-0.05-4.64c0-14.94,0.06-29.89-0.03-44.83c-0.04-6.01,0.34-11.84,3.71-17.09c1.37-2.14,1.35-4.31-0.24-6.46
			c-2.46-3.33-2.6-7.2-2.2-11.1c0.26-2.56,0.71-5.1,1.15-7.64c0.71-4.11,1.01-8.17-0.77-12.14c-1.22-2.72-1.01-5.55-0.23-8.33
			c0.62-2.23,1.29-4.46,2.18-6.59c1.29-3.05,1.17-5.86-0.21-8.91c-4.33-9.57-4.61-19.47-1.51-29.42c1.97-6.32,2.1-12.63,0.97-19.08
			c-1.96-11.19-2.82-22.48-2.82-33.84c0-31.17,0-62.35,0-93.52c0-1.03,0.05-2.06-0.01-3.09c-0.32-5.62,1.77-10.15,6.43-13.23
			c5.53-3.65,5.85-6.83,1.16-11.87c-1.23-1.32-2.34-2.75-3.41-4.19c-3.02-4.06-4.76-8.59-4.29-13.7c1.16-12.36,0.3-24.71,0.01-37.07
			c-0.21-9.05,0.27-18.03,2.93-26.77c0.62-2.05,0.38-3.93-0.38-5.99c-0.97-2.61-1.6-5.41-1.88-8.18c-0.48-4.62-0.65-9.19-3.02-13.43
			c-1.73-3.1-1.39-6.58,0.18-9.69c2.06-4.07,2.31-8.34,2.3-12.77c-0.05-25.77-0.05-51.53,0.01-77.3c0.01-3.65-0.35-7.14-1.7-10.57
			c-3.17-8.05-3.58-16.61-3.94-25.08c-0.46-10.81-0.49-21.64-0.45-32.45c0.01-3.04,0.71-6.12,1.45-9.09
			c0.94-3.78,3.47-6.41,7.27-7.28c5.09-1.16,9.73-3.26,14.27-5.74c4.47-2.45,9.12-3.28,14.08-1.11c3.94,1.73,8.09,0.99,12.19,0.47
			c4.59-0.58,9.19-1.18,13.81-1.47c5.74-0.36,11.34,0.41,16.43,3.32c2.99,1.71,5.77,1.49,8.78-0.06c7.57-3.92,15.72-4.74,24.06-3.85
			c7.71,0.83,15.4,1.16,23.14,0.7c3.34-0.2,6.7-0.09,10.05-0.16c5.25-0.12,10.36,0.72,14.91,3.33c3.42,1.96,6.8,2.04,10.41,1.31
			c5.55-1.12,11.07-2.45,16.66-3.33c4.3-0.68,8.75-1.45,13.02-1.05c14.72,1.36,29.34-0.21,44-0.68c3.6-0.12,7.2-0.18,10.8-0.03
			c22.66,0.95,45.34,1.58,67.99,0.45c13.14-0.66,26.26-0.76,39.39-0.73c6.18,0.01,12.36,0.3,18.52,0.64
			c4.67,0.26,9.21,0.21,13.64-1.72c1.79-0.78,4.02-1.09,5.96-0.88c11.25,1.25,22.51,2.53,33.71,4.16
			c8.5,1.24,14.58,5.97,18.05,13.99c1.74,4.01,3.88,7.85,5.69,11.83c2.58,5.68,4.3,11.56,4.12,17.91c-0.05,1.77,0.08,3.66,0.65,5.32
			c5.47,16.16,5.73,32.88,5.59,49.66c-0.1,11.08-0.46,22.16-0.09,33.23c0.33,9.85-3.34,17.48-10.77,23.61
			c-8.25,6.81-17.03,12.52-27.95,13.95c-1.28,0.17-2.55,0.43-3.83,0.45c-12.88,0.18-25.76,0.59-38.63,0.34
			c-5.87-0.11-11.7-1.6-17.56-2.36c-2-0.26-4.07-0.44-6.06-0.21c-4.59,0.54-9.14,1.39-13.71,2.06c-2.89,0.43-5.68-0.04-8.27-1.34
			c-6.39-3.18-13.23-4.14-20.25-4.19c-14.17-0.09-28.34-0.1-42.51-0.14c-14.94-0.05-29.88-0.03-44.83-0.18
			c-9.88-0.1-18.06,3.53-24.76,10.65c-3.98,4.23-6.61,9.2-7.32,15.03c-0.37,3.06-0.69,6.15-0.71,9.23
			c-0.1,20.61-0.31,41.23-0.08,61.84c0.16,14.16,0.73,28.33,1.57,42.47c1.1,18.47,8.46,34.3,21.23,47.68
			c5.44,5.69,12.08,8.63,19.82,9.23c2.82,0.22,5.66,0.2,8.5,0.22c17,0.11,34,0.25,51.01,0.26c1.99,0,4.09-0.45,5.96-1.16
			c9.54-3.59,19.43-4.98,29.55-5.03c12.36-0.07,24.73-0.02,37.09-0.15c2.73-0.03,4.91,0.97,7.2,2.27c4.06,2.3,5.85,1.78,8.41-1.91
			C2714.16,734.47,2715.11,732.98,2716.22,731.3z M2561.11,1123.83c-2.22,6.19-2.25,7.26,1.11,10.17c2.09,1.81,4.56,3.68,7.15,4.31
			c7.05,1.73,14.17,1.3,21.09-1.13c0.17-0.06,0.23-0.39,0.35-0.6c-2.76-7.14-2.9-7.27-9.69-5.5c-2.44,0.64-4.53,0.46-6.4-1.36
			C2571.06,1126.15,2566.47,1124.77,2561.11,1123.83z M2520.18,919.65c-1.12,0.06-1.9,0.01-2.65,0.16
			c-6.26,1.21-11.09,5.12-16.02,8.75c-1.47,1.08-1.34,3.78-0.13,5.7c1.03,1.65,2.52,2.82,4.48,2.18c4.62-1.49,9.33-2.87,13.66-4.98
			c2.39-1.17,4.3-3.57,6.06-5.72c1.65-2,0.58-4.66-1.98-5.46C2522.39,919.9,2521.1,919.81,2520.18,919.65z M2441.67,1001.82
			c-0.47,4.19,2.07,6.5,6,5.38c4.18-1.2,7.26-3.74,8.95-7.8c1.41-3.41-1.57-8.22-4.82-7.85
			C2447.09,992.08,2442.21,997.04,2441.67,1001.82z M2645.03,779.73c-4.42,1.12-6.44,4.42-7.89,7.92c-0.57,1.39-0.19,3.66,0.61,5.04
			c1.75,3.04,4.16,5.62,8.12,7.32c0.96-3.54,2.69-6.77,2.42-9.82C2648,786.88,2648.66,782.88,2645.03,779.73z M2345.15,1025.55
			c5.58,2.7,10.32,1.77,14.67-2.3c-0.89-3.87-3.46-5.84-6.59-7.23c-2.12-0.94-4.2-0.41-5.39,1.53
			C2346.39,1019.92,2345.11,1022.41,2345.15,1025.55z M2400.84,1030.28c1.57,4.97,5.33,7,10.32,7.19c2.76,0.1,4.73-2.59,3.81-5.22
			c-0.4-1.14-1.09-2.54-2.05-3.06c-1.95-1.06-4.15-2.02-6.32-2.24C2404.28,1026.7,2402.12,1027.78,2400.84,1030.28z M2370.12,833.26
			c4.09,3.57,8.06,3.54,12.04,2.49c1.76-0.47,2.75-2.16,3.16-4.05c0.42-1.95-0.31-3.6-2.09-4.43c-3.33-1.55-6.44-1.57-9.08,1.37
			C2372.97,829.94,2371.83,831.29,2370.12,833.26z M2447.05,945.83c1.63-0.1,3.23,0.21,4.39-0.38c1.54-0.78,2.89-2.11,4.04-3.45
			c2.29-2.64,1.08-7.45-2.15-9.12c-2.38-1.23-4.67-0.46-5.63,2.03C2446.4,938.31,2446.22,941.8,2447.05,945.83z M2594.71,890.52
			c-1.1,2.16-1.94,3.7-2.69,5.29c-0.32,0.68-0.53,1.43-0.7,2.17c-0.81,3.56,2.57,7.3,6.15,6.79c0.45-0.06,1-0.38,1.26-0.74
			c1.77-2.44,1.68-5.25,1.31-8.03C2599.68,893.24,2597.96,891.57,2594.71,890.52z M2680.96,1142.88c-1.11-1.98-2.09-4.05-3.36-5.91
			c-1.33-1.94-3.72-2.26-5.35-0.73c-1.81,1.7-3.77,3.36-4.51,5.85C2673.47,1146.66,2674.02,1146.7,2680.96,1142.88z
			 M2648.21,1139.21c-4.86,3.73-4.86,3.73-5.24,6c-0.32,1.93,0.61,3.54,2.49,4.12c0.72,0.22,1.48,0.39,2.23,0.42
			c3.65,0.13,5.78-2.92,4.09-6.06C2650.95,1142.18,2649.62,1140.94,2648.21,1139.21z M2472.76,1058.2
			c-5.54-1.27-6.81-0.67-7.42,3.58c-0.43,2.99-0.79,6.04,0.26,9C2469.29,1070.22,2470.62,1067.89,2472.76,1058.2z M2351.16,456.78
			c-1.93-2.44-3.72-3.74-6.08-4.14c-2.09-0.36-4.31,0.98-4.75,2.84c-0.48,2,0.64,4.58,2.68,5.82c1.8,1.09,3.39,0.47,4.76-0.93
			C2348.81,459.3,2349.82,458.2,2351.16,456.78z M2473.53,1013.23c5.04-0.63,8.72-2.78,12.18-6.56c-1.71-0.99-2.93-2.22-4.22-2.31
			c-1.66-0.11-3.7,0.26-5,1.21c-1.52,1.11-2.58,2.99-3.5,4.72C2472.65,1010.93,2473.29,1012.08,2473.53,1013.23z M2388.69,1027.84
			c-4.12-0.3-7.28,3.1-6.65,6.42c0.13,0.68,0.67,1.43,1.24,1.84c1.99,1.43,4.99,1.43,6.45,0.07c1.66-1.54,2.32-3.57,1.46-5.6
			C2390.66,1029.34,2389.29,1028.47,2388.69,1027.84z M2446.76,1038.65c-2.19-3.15-4.28-4.09-6.48-4.67
			c-2.64-0.7-5.06,1.42-4.99,4.22c0.02,0.75,0.14,1.53,0.37,2.24c0.87,2.7,3.81,3.78,6.1,2.18
			C2443.42,1041.46,2444.93,1040.11,2446.76,1038.65z M2510.01,1011.46c-2.41-3.28-4.69-5.48-8.82-5.79c-0.39,1.59-0.88,3-1.01,4.44
			c-0.06,0.64,0.45,1.54,0.98,1.98C2503.36,1013.92,2506.22,1013.76,2510.01,1011.46z M2637.68,519.11
			c2.94-2.13,3.65-2.94,3.47-3.89c-0.44-2.33-2.94-4.75-5.34-4.75c-2.05,0-3.17,1.35-3.39,3.88
			C2634.05,515.82,2635.89,517.49,2637.68,519.11z M2537.63,898.45c-4.39-3.14-6.5-3.13-11.14,0.01
			C2529.5,903.02,2533.56,903.02,2537.63,898.45z M2697.87,1254.3c-2.34,3.71-2.71,5.86-0.97,6.57c2.03,0.83,4.27,1.21,6.46,1.57
			c0.39,0.06,0.95-0.98,1.81-1.93C2702.73,1258.33,2701.19,1255.38,2697.87,1254.3z M2442.28,816.51c2.5,2.13,3.8,4.76,6.73,5.42
			c1.8-4.64,1.73-5.51-0.37-6.95C2446.64,813.61,2445.76,813.77,2442.28,816.51z M2407.15,429.73c-2.99,4.98-2.4,6.88,2.35,7.43
			c1.41,0.16,2.87-0.13,5.48-0.28C2412.51,433.29,2410.15,431.21,2407.15,429.73z M2425.83,1075.9c-1.17,1.54-2.01,2.21-2.28,3.07
			c-0.61,2.01,0.75,3.41,1.98,4.71c1.43,1.52,2.36,1.23,5.87-1.95C2429.65,1079.89,2427.91,1078.08,2425.83,1075.9z M2709.96,786.05
			c-0.94,0.38-1.8,0.47-2.23,0.95c-1.29,1.41-3.6,2.3-2.9,4.87c0.45,1.64,2.56,1.59,5.95-0.22c0.6-0.32,0.98-1.05,1.69-1.85
			C2711.62,788.53,2710.82,787.33,2709.96,786.05z M2469.7,978.08c-0.03-3.98-0.52-6.54-3.86-7.94
			C2464.83,976.12,2464.83,976.12,2469.7,978.08z M2721.52,880.71c1.42,1.26,2.09,2.35,2.81,2.37c1.08,0.04,2.21-0.6,3.25-1.1
			c0.22-0.11,0.28-0.96,0.11-1.34c-0.61-1.39-1.88-1.41-3.12-1.18C2723.88,879.59,2723.25,879.98,2721.52,880.71z M2485,1071.65
			c-1.32-1.28-2.33-2.27-3.45-3.36c-1.23,0.83-2.2,1.5-3.6,2.45c1.34,1.3,2.34,2.28,3.45,3.36
			C2482.63,1073.26,2483.62,1072.59,2485,1071.65z M2727.85,791.98c0.72,0.9,1.06,1.63,1.64,1.98c1.29,0.78,2.42,0.24,3.19-0.92
			c0.23-0.35,0.29-1,0.13-1.39c-0.61-1.5-1.8-1.52-3.08-0.97C2729.27,790.88,2728.9,791.24,2727.85,791.98z M2641,814.24
			c-0.3-0.9-0.33-1.5-0.64-1.84c-0.61-0.65-1.38-1.15-2.09-1.71c-0.43,0.82-0.95,1.6-1.24,2.46c-0.14,0.41,0.04,1.09,0.33,1.43
			c0.44,0.54,1.27,1.37,1.64,1.24C2639.8,815.54,2640.42,814.73,2641,814.24z M2614.24,507.26c2.53,0.08,3.26-1.5,3.26-2.91
			c0-0.87-1.4-1.74-2.16-2.61c-0.56,0.74-1.48,1.44-1.6,2.25C2613.59,505.07,2614.06,506.24,2614.24,507.26z M2532.35,745.36
			c-0.47,0.12-1.05,0.1-1.39,0.38c-1.43,1.16-1.42,2.54-0.3,3.89c0.28,0.33,0.94,0.68,1.27,0.57c1.86-0.65,1.7-2.15,1.27-3.63
			C2533.07,746.12,2532.64,745.76,2532.35,745.36z M2380.93,919.83c0.92-1.3,1.57-2.2,2.22-3.11c-0.73-0.51-1.42-1.37-2.2-1.45
			c-1.43-0.16-2.67,1.17-2.2,2.2C2379.1,918.25,2379.96,918.81,2380.93,919.83z M2501.71,993.59c-0.47-1.57-2.44-2.08-4.31-0.94
			c-0.52,0.32-1.04,1.21-0.98,1.76c0.06,0.47,0.98,1.18,1.5,1.17c1.16-0.03,2.33-0.38,3.45-0.75
			C2501.6,994.76,2501.6,994.02,2501.71,993.59z M2478.86,524.7c1.79,2.52,2.79,3.03,4.46,1.96c0.4-0.26,0.69-1.41,0.45-1.82
			c-1.13-1.97-2.77-1.7-4.44-0.66C2479.14,524.3,2479.02,524.53,2478.86,524.7z M2639.37,839.83c-1.49-1.05-2.35-2.09-3.35-2.24
			c-1.18-0.18-2.62,0.52-2.61,2.01c0.02,1.62,1.51,1.76,2.71,1.61C2636.99,841.11,2637.8,840.52,2639.37,839.83z M2496.72,1076.82
			c0.7-0.48,1.47-0.76,1.83-1.3c0.79-1.2,0.4-2.42-0.65-3.25c-0.46-0.37-1.47-0.62-1.88-0.36c-1.18,0.75-1.35,2-0.72,3.23
			C2495.61,1075.75,2496.2,1076.22,2496.72,1076.82z M2617.89,1162.98c-0.86-0.85-1.44-1.88-2.19-2.01c-0.54-0.1-1.49,0.89-1.89,1.6
			c-0.3,0.55-0.1,1.44,0.01,2.15c0.17,1.02,1.49,1.48,2.25,0.73C2616.74,1164.79,2617.19,1163.94,2617.89,1162.98z M2603.11,1154.13
			c2.24-2.86,2.45-3.68,1.02-4.91c-0.43-0.37-1.59-0.47-2.02-0.16C2600.76,1150.07,2601.1,1151.54,2603.11,1154.13z M2662.8,886.97
			c-1.77-0.73-2.52-1.22-3.33-1.34c-1.01-0.15-2.09,0.11-2.07,1.43c0.02,1.21,0.97,1.77,2.04,1.58
			C2660.27,888.49,2661.02,887.88,2662.8,886.97z M2490.54,601.42c-1.98-0.34-2.97-0.82-3.65-0.54c-0.73,0.29-1.18,1.3-1.75,1.99
			c0.84,0.31,1.72,0.94,2.49,0.83C2488.37,603.58,2488.99,602.69,2490.54,601.42z M2488.05,724.13c-1.14,1.33-1.87,2.17-2.6,3.02
			c0.77,0.54,1.59,1.57,2.3,1.49c0.81-0.09,1.87-1.04,2.13-1.84C2490.04,726.3,2488.95,725.38,2488.05,724.13z M2456.95,558.48
			c-0.89-1.19-1.46-1.96-2.03-2.73c-0.66,0.64-1.78,1.23-1.85,1.92c-0.07,0.74,0.69,1.89,1.4,2.25
			C2454.88,560.13,2455.9,559.13,2456.95,558.48z M2513.63,762.67c-0.61,1.55-1.33,2.47-1.17,3.21c0.16,0.74,1.19,1.29,1.83,1.92
			c0.48-0.77,1.37-1.55,1.34-2.3C2515.6,764.76,2514.66,764.04,2513.63,762.67z M2508.96,595.76c0.22,0.45,0.33,1.02,0.68,1.31
			c1.07,0.91,2.27,1.2,3.32-0.01c0.25-0.29,0.27-1.27,0.17-1.3c-0.93-0.33-1.89-0.62-2.87-0.71
			C2509.85,595.01,2509.39,595.5,2508.96,595.76z M2581.98,896c-1.18-0.89-1.88-1.41-2.58-1.93c-0.46,0.78-1.13,1.52-1.3,2.35
			c-0.08,0.42,0.96,1.52,1.14,1.45C2580.04,897.53,2580.73,896.89,2581.98,896z M2484.83,590.28c-1.61-0.74-2.35-1.32-3.14-1.4
			c-1.29-0.12-2.8,1.54-2.16,2.14c0.62,0.59,1.65,1.07,2.48,1.04C2482.71,592.04,2483.4,591.23,2484.83,590.28z M2473.09,667.15
			c-0.33,0.26-0.67,0.5-0.97,0.79c-0.03,0.03,0.24,0.36,0.37,0.56c0.33-0.26,0.67-0.5,0.97-0.79
			C2473.48,667.67,2473.22,667.34,2473.09,667.15z M2331.2,423.61c-0.24,0.3-0.51,0.58-0.68,0.92c-0.04,0.08,0.33,0.52,0.43,0.49
			c0.36-0.1,0.69-0.33,1.04-0.52C2331.72,424.21,2331.46,423.91,2331.2,423.61z M2336.07,430.49c-0.25-0.36-0.46-0.76-0.76-1.07
			c-0.11-0.12-0.43-0.03-0.66-0.03c0,0.4,0.01,0.8,0.01,1.2C2335.13,430.55,2335.6,430.52,2336.07,430.49z M2414.22,780.76
			c-0.18-0.37-0.38-0.77-0.57-1.17c-0.39,0.21-0.79,0.43-1.18,0.64c0.28,0.49,0.57,0.97,0.85,1.46
			C2413.62,781.38,2413.92,781.07,2414.22,780.76z M2471.76,655.76c0.3,0.22,0.59,0.47,0.92,0.63c0.08,0.04,0.46-0.33,0.44-0.37
			c-0.19-0.37-0.45-0.71-0.68-1.05C2472.21,655.22,2471.98,655.49,2471.76,655.76z M2431.55,1059.09c-0.42-0.21-0.84-0.41-1.26-0.62
			c-0.17,0.44-0.51,0.91-0.44,1.3c0.05,0.23,0.82,0.55,1.13,0.44C2431.28,1060.11,2431.37,1059.49,2431.55,1059.09z M2442.73,470.91
			c-0.14,0.44-0.47,0.93-0.36,1.3c0.07,0.25,0.78,0.46,1.16,0.4c0.21-0.04,0.53-0.86,0.41-1.02
			C2443.67,471.26,2443.15,471.13,2442.73,470.91z M2621,1261.6c0.18-0.12,0.36-0.24,0.53-0.36c-0.22-0.29-0.42-0.6-0.68-0.85
			c-0.03-0.03-0.33,0.2-0.51,0.31C2620.56,1261,2620.78,1261.3,2621,1261.6z M2497.09,1106.99c-0.05-0.2-0.1-0.39-0.15-0.59
			c-0.1,0.25-0.19,0.5-0.29,0.76C2496.79,1107.1,2496.94,1107.05,2497.09,1106.99z M2513.69,1119.06l0.41,0.06l-0.14-0.57
			L2513.69,1119.06z M2710.66,905.5c-0.19-0.35-0.38-0.7-0.57-1.05c-0.2,0.12-0.59,0.31-0.58,0.34c0.16,0.39,0.38,0.76,0.58,1.13
			C2710.28,905.78,2710.47,905.64,2710.66,905.5z M2621.27,904.7c-0.21-0.08-0.43-0.16-0.65-0.25c-0.01,0.33-0.02,0.66-0.02,0.99
			c0.23-0.07,0.49-0.09,0.66-0.22C2621.35,905.16,2621.27,904.89,2621.27,904.7z M2354.6,531.02c-0.51-0.14-0.82-0.22-1.12-0.3
			c0.06,0.17,0.11,0.49,0.19,0.49C2353.89,531.23,2354.13,531.13,2354.6,531.02z M2336.61,661.92c-0.13-0.2-0.26-0.39-0.39-0.59
			c-0.18,0.15-0.36,0.3-0.54,0.45c0.22,0.25,0.44,0.49,0.67,0.74C2336.44,662.32,2336.53,662.12,2336.61,661.92z M2593.15,887.88
			c-0.33-0.22-0.63-0.47-0.98-0.62c-0.07-0.03-0.4,0.28-0.42,0.46c-0.02,0.18,0.23,0.55,0.31,0.54
			C2592.44,888.18,2592.79,888.01,2593.15,887.88z M2414.12,881.62c-0.21-0.43-0.42-0.87-0.63-1.3c-0.2,0.16-0.55,0.3-0.56,0.48
			c-0.04,0.42,0.08,0.85,0.14,1.28C2413.42,881.93,2413.77,881.78,2414.12,881.62z M2681.03,478.41c0.05-0.21,0.09-0.4,0.13-0.59
			c-0.28,0.03-0.57,0.06-0.85,0.09c0.06,0.17,0.07,0.41,0.18,0.48C2680.62,478.47,2680.84,478.41,2681.03,478.41z M2668.91,809.98
			c-0.12-0.21-0.24-0.42-0.36-0.63c-0.16,0.18-0.49,0.43-0.46,0.52c0.14,0.29,0.4,0.51,0.62,0.76
			C2668.77,810.41,2668.84,810.19,2668.91,809.98z M2389.15,1006.16c0.43-0.2,0.85-0.41,1.28-0.61c-0.16-0.19-0.32-0.55-0.49-0.55
			c-0.44-0.01-0.88,0.13-1.33,0.2C2388.79,1005.52,2388.97,1005.84,2389.15,1006.16z M2503.3,459.89c-0.12-0.18-0.27-0.53-0.35-0.52
			c-0.4,0.07-0.78,0.25-1.17,0.38c0.14,0.17,0.3,0.48,0.42,0.47C2502.57,460.18,2502.93,460.01,2503.3,459.89z M2448.71,696.94
			c-0.07,0.21-0.13,0.41-0.2,0.62c0.3,0.02,0.6,0.04,0.9,0.06c-0.07-0.21-0.09-0.46-0.22-0.62
			C2449.12,696.9,2448.88,696.95,2448.71,696.94z M2354.41,1272.71c-0.22-0.07-0.44-0.14-0.66-0.21c-0.03,0.28-0.05,0.57-0.08,0.85
			c0.23-0.04,0.49-0.04,0.68-0.15C2354.44,1273.15,2354.4,1272.88,2354.41,1272.71z"/>
		<path d="M1054.86,1026.23c-4.96,0.58-8.92-1.8-12.73-4.44c-2.22-1.54-3.26-3.98-3.65-6.59c-0.26-1.77-0.25-3.59-0.26-5.39
			c-0.01-15.97,0.03-31.95-0.02-47.92c-0.02-5.24,0.64-10.27,3.45-14.84c1.3-2.11,1.76-4.28,0.17-6.49
			c-2.95-4.09-2.86-8.69-2.21-13.36c0.32-2.29,0.9-4.55,1.21-6.84c0.45-3.32,0.92-6.7-0.6-9.88c-1.93-4.05-1.16-8.05,0-12.05
			c0.43-1.48,1.04-2.91,1.64-4.33c1.17-2.76,1.11-5.39-0.15-8.19c-4.54-10.09-4.69-20.42-1.37-30.91
			c1.67-5.25,1.86-10.65,0.92-16.05c-2.67-15.29-3.16-30.71-3.09-46.2c0.13-27.31,0.04-54.62,0.04-81.93c0-1.8,0.03-3.61,0-5.41
			c-0.09-4.72,1.9-8.38,5.42-11.44c7.26-6.3,7.22-6.37,0.93-13.98c-0.82-0.99-1.63-2-2.37-3.04c-2.77-3.89-4.49-8.14-4.05-13
			c1.22-13.39,0.06-26.78-0.01-40.16c-0.04-8.02,0.52-15.95,2.79-23.7c0.59-2,0.98-4.06-0.18-5.99c-1.81-3.01-1.85-6.39-2.08-9.72
			c-0.29-4.12-0.61-8.18-2.75-11.92c-1.79-3.12-1.68-6.58-0.12-9.68c2.31-4.57,2.47-9.35,2.46-14.28
			c-0.07-25.25-0.06-50.5-0.02-75.75c0.01-3.89-0.3-7.63-1.77-11.33c-2.9-7.29-3.44-15.06-3.75-22.77
			c-0.45-11.32-0.6-22.66-0.63-33.99c-0.01-3.04,0.68-6.13,1.4-9.11c0.98-4.06,3.56-6.92,7.71-7.81c5.12-1.1,9.71-3.32,14.27-5.76
			c4.26-2.28,8.68-3.15,13.35-1.12c4.23,1.84,8.58,1.1,12.94,0.56c4.85-0.6,9.71-1.15,14.58-1.43c5.22-0.3,10.32,0.55,14.93,3.16
			c3.26,1.84,6.23,1.73,9.49,0c6.81-3.6,14.19-4.61,21.75-3.84c9.51,0.96,19.01,1.19,28.55,0.7c8.3-0.42,16.5-0.15,23.93,4.39
			c2.14,1.31,4.54,0.75,6.8,0.33c5.82-1.09,11.58-2.52,17.43-3.4c4.81-0.72,9.78-1.54,14.56-1.08c12.14,1.16,24.2,0.11,36.28-0.46
			c7.99-0.37,15.94-0.29,23.93-0.15c20.34,0.34,40.7,0.43,61.04,0.37c12.61-0.04,25.23-0.68,37.84-0.79
			c6.94-0.06,13.9,0.32,20.84,0.66c4.41,0.21,8.81,0.41,12.86-1.69c2.2-1.14,4.45-1.25,6.76-0.97c11.24,1.37,22.5,2.63,33.71,4.26
			c7.92,1.15,13.68,5.59,17.18,12.86c1.9,3.94,3.86,7.86,5.74,11.81c2.91,6.12,4.68,12.5,4.68,19.36c0,2.27,0.47,4.61,1.13,6.79
			c3.46,11.44,4.92,23.14,4.9,35.06c-0.03,15.97-0.09,31.95,0.02,47.92c0.05,7.39-2.45,13.63-7.69,18.73
			c-11.3,11-24.28,18-40.64,17.55c-9-0.24-18.03,0.27-27.04,0.38c-7.76,0.1-15.45-0.59-22.98-2.54c-2.57-0.67-4.96-0.6-7.57-0.06
			c-4.52,0.94-9.14,1.61-13.74,1.84c-2.46,0.12-5.18-0.5-7.44-1.54c-6-2.75-12.27-3.85-18.76-3.94
			c-12.11-0.15-24.22-0.22-36.32-0.26c-17-0.05-34.01,0.03-51.01-0.09c-4.97-0.03-9.78,0.43-14.34,2.46
			c-11.86,5.3-18.66,14.25-19.39,27.4c-0.23,4.11-0.08,8.24-0.14,12.36c-0.44,31.69-0.49,63.36,1.31,95.03
			c1.04,18.22,7.44,33.97,19.47,47.65c6.35,7.22,14.04,11.09,23.61,11.3c2.83,0.06,5.67,0.1,8.5,0.12
			c16.23,0.11,32.46,0.26,48.69,0.25c2.24,0,4.59-0.52,6.71-1.29c8.57-3.12,17.43-4.69,26.49-4.83c13.39-0.21,26.79-0.11,40.18-0.18
			c2.13-0.01,3.96,0.59,5.84,1.6c5.93,3.17,6.48,2.94,10.38-2.9c0.69-1.04,1.54-1.98,2.29-2.94c6.3,1.3,12.3,2.58,18.31,3.77
			c8.12,1.61,11.25,5.8,13.31,15.84c0.31,1.48,0.07,3.08,0.07,4.63c0,28.86-0.03,57.72,0.04,86.57c0.01,4.68-0.38,9.26-1.65,13.75
			c-1.22,4.31-1.29,8.52,0,12.9c2.21,7.52,1.72,15.34,1.65,23.04c-0.06,6.68-3.12,9.68-9.79,10.67c-1.68,0.25-3.7-0.51-5.13,2.02
			c0.84,0.92,1.71,2.08,2.78,2.99c1.16,0.98,2.51,1.74,3.75,2.58c-1.74,3.87-5.07,6.7-9.2,6.72c-5.75,0.02-11.21,1.35-16.76,2.43
			c-5.97,1.16-11.8,0.43-17.41-1.91c-1.66-0.69-3.25-1.56-4.93-2.21c-1.99-0.77-4.06-0.98-5.93,0.3c-5.86,3.98-12.47,4.4-19.25,4.38
			c-14.94-0.05-29.89-0.07-44.83,0.07c-6,0.06-11.76-1.17-17.55-2.39c-4.28-0.9-8.57-1.76-12.89-2.46
			c-4.91-0.79-9.79-0.54-14.45,1.34c-7.81,3.15-15.81,4.31-24.21,3.16c-3.28-0.45-6.67-0.07-10.3-0.07
			c-2.05,2.93-4.02,5.59-5.82,8.34c-3.1,4.74-6.14,9.53-9.14,14.34c-1.72,2.76-4.11,4.5-7.14,5.58c-2.27,0.8-4.38,1.2-6.7,0.05
			c-3.12-1.54-6.4-1.98-9.64-0.23c-2.74,1.49-5.41,1.35-8.08-0.15c-0.67-0.38-1.39-0.69-2.12-0.94c-2.19-0.77-4.11-0.32-5.5,1.57
			c-2.61,3.56-5.55,6.73-9.36,9.1c-0.93,0.58-1.53,2.05-1.82,3.23c-0.64,2.58,1.45,4.53,4.04,3.89c1.24-0.31,2.43-0.85,3.65-1.24
			c2.84-0.91,5.82-0.96,8.18,0.8c4.3,3.2,8.57,2.92,13.1,0.89c0.46-0.21,0.98-0.3,1.49-0.4c1.59-0.29,3.22,0.91,3.09,2.56
			c-0.14,1.75-0.6,3.49-1.06,5.2c-0.33,1.22-0.9,2.38-1.53,3.99c1.69,0.82,3.2,1.69,4.8,2.28c1.68,0.61,3.51,0.85,5.2,1.44
			c3.26,1.14,5.3,3.55,5.07,6.96c-0.34,5.08,0.23,10.35-2.34,15.12c-2.11,3.9-1.92,7.9-0.23,11.91c0.7,1.66,1.53,3.31,1.9,5.04
			c1.29,6.04-2.33,10.09-8.52,9.62c-1.54-0.12-3.07-0.75-4.57-0.67c-2.01,0.11-4.07,0.47-5.96,1.13c-2.14,0.75-3.07,2.95-2.27,5.04
			c0.64,1.67,1.56,3.24,2.48,4.78c1.48,2.47,3.64,3.55,6.54,2.84c0.25-0.06,0.51-0.09,0.75-0.19c4.45-1.76,7.35,0.26,9.7,3.85
			c3.25,4.95,2.47,8.27-2.74,11.5c-1.72,1.07-3.53,2.08-5.01,3.44c-1.4,1.28-1.14,3.57,0.31,4.81c1.17,1,2.49,1.82,3.75,2.71
			c6.89,4.9,10.77,11.63,12.11,19.9c0.37,2.29,0.66,4.59,0.87,6.9c0.44,4.84,2.49,8.93,5.87,12.3c2.36,2.36,4.97,4.48,7.58,6.58
			c2.26,1.82,4.89,2.75,7.86,2.77c3.35,0.02,6.69,0.22,10.04,0.3c4.92,0.11,9.75-0.27,14.45-1.97c7.46-2.7,14.77-2.21,21.51,2.05
			c5.01,3.16,9.68,2.75,14.46-0.23c0.87-0.55,1.78-1.03,2.7-1.51c11.48-5.98,23.19-6.18,35.04-1.24c2.13,0.89,4.15,2.06,6.2,3.14
			c4.52,2.39,9.12,3.07,14.16,1.57c8.23-2.46,16.76-2.69,25.27-2.61c6.95,0.07,13.91,0.4,20.86,0.41c3.74,0.01,7.02,0.9,10.14,3.04
			c7.17,4.91,15.24,7.53,23.88,8.07c10.28,0.64,20.58,1.03,30.87,1.35c2.81,0.09,5.65-0.33,8.45-0.71
			c9.82-1.34,16.29,2.14,20.53,11.12c1.87,3.96,3.77,7.9,5.64,11.86c3.81,8.01,5.09,16.06,1.36,24.58c-1.97,4.52-2,9.51-1.98,14.45
			c0.03,8.49,0.18,17.01-0.32,25.48c-0.54,9.15,0.05,18.01,4.06,26.64c-1.96,5.46-4.12,10.99-4.24,16.99
			c-0.07,3.86-0.13,7.73-0.14,11.59c-0.03,13.84-0.55,14.77-10.24,24.37c-3.82,3.79-7.75,4.38-12.64,2.67
			c-4.35-1.52-8.81-2.94-13.34-3.65c-7.49-1.18-14.97-0.33-22.08,2.3c-7.39,2.74-14.93,3.57-22.75,3.46
			c-13.14-0.19-26.28,0.01-39.42-0.09c-4.63-0.03-9.26-0.41-13.88-0.7c-4.16-0.26-8.21-1.14-11.82-3.25
			c-3.45-2.03-6.81-2.21-10.24-0.26c-5.11,2.91-10.67,3.46-16.41,3.56c-5.14,0.09-10.27,0.53-15.4,0.9
			c-14.08,1-24.48-4.6-30.98-17.2c-0.83-1.6-1.63-3.22-2.28-4.9c-4.33-11.21-11.3-20.72-18.8-29.97
			c-4.45-5.48-10.78-7.77-16.6-10.97c-1.73-0.95-3.63-0.12-4.77,1.48c-1.34,1.88-2.67,3.83-3.6,5.93
			c-4.24,9.65-8.54,19.29-12.38,29.1c-2.02,5.15-4.69,9.68-8.49,13.64c-5.12,5.35-11.35,7.87-18.72,7.58
			c-8.23-0.32-16.46-0.7-24.69-1.07c-6.79-0.3-13.32,0.82-19.66,3.27c-2.38,0.92-4.88,1.58-7.35,2.26
			c-4.91,1.35-9.7,0.96-14.33-1.15c-5.75-2.61-11.84-3.43-18.06-3.54c-11.59-0.21-23.17-0.42-34.76-0.55
			c-16.23-0.19-32.47-0.69-48.68-0.31c-8.91,0.21-13.99-3.65-17.09-11.45c-2.04-5.12-2.95-10.38-2.94-15.84
			c0.01-11.08,0-22.16-0.01-33.24c0-2.58,0.05-5.15-0.01-7.73c-0.36-16.49,0.14-32.88,3.28-49.19c2.34-12.14,2.96-24.55,2.92-36.93
			c-0.07-23.19-0.36-46.37-0.43-69.56c-0.03-9.01,0.24-18.03,0.49-27.04c0.18-6.46,2.07-8.62,8.38-10.08
			c1.75-0.41,3.52-0.74,5.21-1.33c2.28-0.79,2.92-2.68,2.82-4.92c2.02,0.31,4.04,0.63,6.05,0.91c4.15,0.58,7.25-1.19,9.91-3.9
			c-1.08-2.97-2.69-4.84-4.99-6.21c-3.77-2.23-6.26-1.62-8.05,2.3C1056.53,1021.45,1055.76,1023.87,1054.86,1026.23z
			 M1271.92,1123.86c-2.95,4.35-2.02,7.39,1,10.26c2.7,2.56,5.79,4.51,9.44,4.85c5.87,0.56,11.78,0.43,17.54-1.13
			c0.63-0.17,1.15-0.78,1.76-1.21c-0.26-0.91-0.32-1.73-0.7-2.35c-2.9-4.76-3.32-5.05-8.56-3.4c-3.05,0.96-5.43,0.61-7.73-1.65
			C1281.21,1125.83,1276.76,1124.74,1271.92,1123.86z M1237.35,922.97c-1.23-1.01-2.23-2.41-3.54-2.79
			c-3.27-0.97-6.68-0.79-9.73,0.89c-3.81,2.1-7.55,4.36-11.18,6.75c-2,1.32-2.28,3.95-1.08,6.2c1.06,1.99,2.85,2.96,5.13,2.32
			c3.7-1.03,7.39-2.16,10.96-3.56c3.39-1.34,6.22-3.59,8.21-6.72C1236.66,925.23,1236.87,924.21,1237.35,922.97z M1167.76,997.55
			c0.14-4.31-4.02-7.04-7.93-5.22c-2.64,1.22-4.91,3-6.16,5.59c-0.85,1.76-1.26,3.88-1.27,5.84c-0.02,2.53,2.31,4.16,4.8,3.67
			c4.9-0.97,8.33-3.78,10.23-8.41C1167.62,998.55,1167.66,998.02,1167.76,997.55z M1355.9,799.84c2.37-3.15,3.39-6.75,2.96-10.18
			c-0.41-3.28,0.52-7.36-3.35-9.85c-4.42,1.02-6.48,4.52-7.91,8.37c-0.45,1.22-0.04,3.15,0.67,4.34
			C1350.1,795.58,1352.49,798.2,1355.9,799.84z M1111.58,1030.12c2.52,5.11,5.17,7.16,9.57,7.4c1.94,0.1,3.51-0.55,4.39-2.39
			c0.88-1.85,0.27-3.49-0.91-4.94c-1.7-2.11-4.09-3.12-6.67-3.3C1115.32,1026.7,1112.94,1027.55,1111.58,1030.12z M1081.35,833.14
			c3.1,2.76,3.1,2.9,6.02,2.98c1.99,0.05,4.16,0.01,5.96-0.7c2-0.79,2.85-2.86,2.89-5.07c0.01-0.48-0.14-1.04-0.4-1.45
			c-1.34-2.11-6.11-3.44-8.33-2.19C1084.78,828.23,1082.6,830.3,1081.35,833.14z M1167.84,939.69c-0.65-1.94-0.97-3.47-1.66-4.8
			c-0.95-1.84-3.36-2.91-5.16-2.48c-1.68,0.4-2.49,1.72-2.93,3.24c-0.91,3.2-1.45,6.44-0.29,9.86
			C1163.12,947.14,1164.99,943.12,1167.84,939.69z M1305.21,890.58c-1.1,2.39-2.23,4.39-2.95,6.52c-1.32,3.93,0.64,6.94,4.99,7.66
			c0.78,0.13,2.22-0.5,2.5-1.15c1.11-2.58,1.88-5.3,0.93-8.17C1309.91,893.13,1308.53,891.45,1305.21,890.58z M1391.6,1142.78
			c-0.6-1.09-1.18-2.2-1.8-3.28c-0.51-0.88-1-1.8-1.63-2.59c-1.45-1.83-3.76-2.16-5.37-0.6c-1.77,1.72-3.67,3.43-4.4,5.86
			C1384.33,1146.68,1384.87,1146.7,1391.6,1142.78z M1359.1,1139.22c-3.25,1.4-4.72,2.99-5.39,5.34c-0.63,2.2,0.34,4.2,2.46,4.8
			c0.96,0.27,2,0.43,2.98,0.36c2.8-0.19,4.63-2.93,3.45-5.44C1361.78,1142.51,1360.37,1141.01,1359.1,1139.22z M1183.6,1058.1
			c-5.97-0.99-7.08-0.4-7.61,3.92c-0.28,2.28-0.32,4.61-0.17,6.9c0.05,0.76,0.93,1.64,1.66,2.08c0.31,0.19,1.55-0.46,1.8-0.99
			C1181,1066.34,1182.91,1062.73,1183.6,1058.1z M1102.28,1032.32c0.12-2.47-1.65-4.5-4-4.59c-3.02-0.12-5.59,2.51-5.7,5.83
			c-0.06,1.88,1.61,3.31,4.15,3.55C1099.83,1037.39,1102.13,1035.41,1102.28,1032.32z M1061.59,456.65
			c-3.81-3.61-4.14-3.74-5.74-4.02c-2.42-0.42-4.97,1.39-4.93,3.65c0.03,2.22,1.04,3.97,2.97,5.07c1.95,1.11,3.46,0.15,4.77-1.24
			C1059.69,459,1060.62,457.8,1061.59,456.65z M1196.08,1007.59c-2.04-3.97-4.75-3.8-7.52-2.78c-2.78,1.02-4.66,2.97-5.1,6.06
			c-0.16,1.15,1.3,2.59,2.4,2.26C1189.51,1012.04,1192.79,1010.26,1196.08,1007.59z M1157.5,1037.62c-2.11-1.36-3.33-2.21-4.62-2.94
			c-0.64-0.36-1.39-0.59-2.12-0.74c-2.38-0.47-4.73,1.23-4.8,3.63c-0.04,1.22,0.24,2.52,0.69,3.66c0.77,1.9,3.51,2.83,5.12,1.64
			C1153.56,1041.54,1155.09,1039.86,1157.5,1037.62z M1342.8,514.33c2.08,1.7,3.98,3.26,6.05,4.96c1.62-1.41,3.43-2.24,2.81-4.45
			c-0.67-2.39-2.39-4-4.84-4.36C1344.74,510.18,1343.57,511.56,1342.8,514.33z M1220.21,1011.72c-3.11-4.59-3.11-4.59-8.08-5.71
			c-1.35,3.67-1.48,4.7-0.72,5.61C1213.26,1013.85,1216.85,1013.89,1220.21,1011.72z M1241.34,901.79c3.63,0.11,6.48-1.23,6.85-2.96
			c0.35-1.68-2.32-2.88-6.17-2.62c-1.22,0.08-2.47,0.42-3.59,0.91c-0.55,0.24-1.12,1.1-1.14,1.7c-0.02,0.61,0.48,1.5,1.01,1.81
			C1239.36,901.24,1240.61,901.53,1241.34,901.79z M1159.3,822.08c2.37-4.44,2.47-5.24,0.37-6.7c-0.99-0.69-2.32-1.31-3.45-1.25
			c-1.02,0.06-1.98,1.1-3.32,1.92C1154.95,818.73,1156.73,820.78,1159.3,822.08z M1408.83,1254.29c-2.41,1.66-2.92,3.62-1.85,6.45
			c1.71,0.59,3.59,1.38,5.55,1.88c1.38,0.35,2.51-0.2,2.76-2.17C1413.62,1258.13,1411.58,1255.93,1408.83,1254.29z M1125.11,436.86
			c-1.86-3.78-4.38-5.66-7.34-7.16c-2.93,5.09-2.34,6.9,2.41,7.46C1121.56,437.31,1122.99,437,1125.11,436.86z M1137.8,1085.03
			c1.55-0.81,2.81-1.48,4.72-2.48c-2.28-2.32-4.15-4.23-6.05-6.17C1133.31,1080.01,1133.31,1080.01,1137.8,1085.03z M1419.54,786.27
			c-0.73,0.61-1.68,1.32-2.54,2.13c-0.53,0.5-1.1,1.09-1.34,1.75c-0.22,0.62-0.29,1.55,0.04,2.03c0.35,0.51,1.38,1.04,1.87,0.88
			c1.6-0.54,3.12-1.35,4.6-2.17c0.32-0.17,0.35-0.85,0.63-1.59c-0.43-0.65-0.89-1.5-1.51-2.22
			C1421.03,786.75,1420.46,786.67,1419.54,786.27z M1176.54,970.06c-1.17,2.35-1.21,4.39-0.24,6.24c0.36,0.69,1.75,1.25,2.56,1.13
			c0.54-0.08,1.31-1.49,1.25-2.25C1179.98,973.13,1179.21,971.27,1176.54,970.06z M1195.43,1071.81c-0.78-1.11-1.11-1.79-1.63-2.29
			c-1.36-1.31-2.76-0.85-3.9,0.29c-0.38,0.38-0.52,1.43-0.27,1.91c0.72,1.36,1.81,2.41,3.56,1.63
			C1193.85,1073.06,1194.4,1072.53,1195.43,1071.81z M1438.93,880.71c-1.03-0.56-1.85-1.39-2.59-1.32
			c-1.07,0.09-2.12,0.78-3.08,1.37c-0.1,0.06,0.32,1.35,0.76,1.83c0.99,1.06,2.25,0.94,3.34,0.14
			C1437.89,882.34,1438.21,881.66,1438.93,880.71z M1349.25,809.68c-0.7,1.64-1.44,2.65-1.5,3.68c-0.06,1.23,0.48,2.54,2.13,2.51
			c1.15-0.02,1.92-1.54,1.4-2.95C1350.93,812.01,1350.24,811.24,1349.25,809.68z M1326.35,501.69c-2.57,2.38-2.57,2.38-0.54,5.61
			C1328.64,504.66,1328.64,504.66,1326.35,501.69z M1444.55,792.26c-1.41-0.89-2.13-1.69-2.92-1.77c-1.25-0.12-2.66,0.44-2.61,1.91
			c0.02,0.66,1.31,1.82,1.95,1.77C1441.98,794.1,1442.92,793.19,1444.55,792.26z M1207.34,1076.8c0.42-0.22,0.7-0.29,0.85-0.46
			c1.61-1.93,1.73-3.06,0.26-4.24c-0.42-0.34-1.52-0.43-1.9-0.12c-1.42,1.13-1.17,2.54-0.2,3.89
			C1206.48,1076.07,1206.69,1076.21,1207.34,1076.8z M1346.28,841.77c1.07-0.83,2.52-1.41,2.62-2.17c0.19-1.36-1.16-2.01-2.48-2.06
			c-1.23-0.05-2.83,1.46-2.39,2.24C1344.46,840.52,1345.36,840.99,1346.28,841.77z M1323.92,1163.53c0.58,0.89,0.85,1.76,1.36,1.94
			c0.52,0.18,1.42-0.15,1.92-0.55c1.09-0.88,1.28-2.1,0.34-3.2c-0.4-0.47-1.54-1.03-1.67-0.89
			C1325.11,1161.63,1324.55,1162.62,1323.92,1163.53z M1094.32,917.36c-0.71-0.93-1.03-1.75-1.59-2c-1.38-0.6-3.68,0.6-3.41,1.74
			c0.19,0.77,1.25,1.92,1.84,1.87C1092.19,918.89,1093.14,918.01,1094.32,917.36z M1314.61,1154.3c0.3-1.39,0.77-2.76,0.81-4.14
			c0.02-0.48-0.96-1.33-1.56-1.4c-0.53-0.06-1.51,0.61-1.69,1.15C1311.57,1151.77,1311.79,1153.44,1314.61,1154.3z M1198.27,729.38
			c1-1.2,1.71-2.05,2.41-2.9c-0.74-0.53-1.43-1.41-2.22-1.5c-1.32-0.15-2.57,0.63-2.37,2.12
			C1196.19,727.81,1197.28,728.39,1198.27,729.38z M1212.45,994.82c-0.15-2.7-1.54-3.28-3.5-2.52c-0.77,0.3-1.28,1.24-1.91,1.88
			c0.69,0.53,1.36,1.46,2.06,1.48C1210.23,995.7,1211.37,995.13,1212.45,994.82z M1189.67,524.6c1.54,2.72,1.54,2.72,4.99,1.41
			C1193.08,523.28,1193.08,523.28,1189.67,524.6z M1243.4,750.44c0.19-1.19,0.54-2.37,0.5-3.54c-0.02-0.52-0.83-1.4-1.29-1.4
			c-0.58-0.01-1.46,0.59-1.7,1.14C1240.04,748.69,1240.83,749.99,1243.4,750.44z M1373.43,886.88c-1.76-0.68-2.54-1.15-3.36-1.26
			c-1.01-0.13-2.09,0.16-2.03,1.49c0.06,1.21,1.02,1.75,2.08,1.54C1370.96,888.48,1371.69,887.83,1373.43,886.88z M1167.71,558.39
			c-1.09-1.13-1.84-1.91-2.58-2.69c-0.51,0.75-1.42,1.5-1.41,2.24c0.01,0.74,0.83,1.85,1.52,2.06
			C1165.75,560.16,1166.62,559.14,1167.71,558.39z M1198.34,600.6c-0.55,0.23-1.36,0.35-1.79,0.82c-0.4,0.43-0.49,1.24-0.48,1.87
			c0,0.2,0.8,0.58,1.2,0.54c0.7-0.07,1.53-0.22,2-0.67c0.4-0.38,0.49-1.23,0.45-1.84C1199.7,601.07,1198.93,600.89,1198.34,600.6z
			 M1195.61,590.05c-1.89-0.61-2.83-1.24-3.55-1.05c-0.75,0.2-1.28,1.2-1.91,1.85c0.82,0.44,1.64,1.23,2.46,1.22
			C1193.33,592.06,1194.04,591.17,1195.61,590.05z M1224.04,595.78c-0.68-0.27-1.33-0.73-1.99-0.75c-0.82-0.02-1.66,0.33-2.76,0.58
			C1222.28,598.31,1222.28,598.31,1224.04,595.78z M1290.92,894.07c-1.94-0.11-2.24,1.02-2.29,1.96c-0.03,0.63,0.6,1.29,0.94,1.94
			c0.73-0.54,1.83-0.95,2.07-1.66C1291.86,895.67,1291.15,894.71,1290.92,894.07z M1227.05,766.19c-0.96-1.14-1.57-1.85-2.17-2.57
			c-0.64,0.6-1.77,1.19-1.79,1.81c-0.03,0.77,0.72,1.88,1.43,2.23C1224.94,767.87,1225.95,766.87,1227.05,766.19z M1041.76,423.61
			c-0.19,0.33-0.42,0.65-0.54,1.01c-0.03,0.08,0.4,0.45,0.48,0.41c0.34-0.16,0.63-0.43,0.94-0.65
			C1042.35,424.12,1042.05,423.87,1041.76,423.61z M1045.06,430.23c0.4,0.17,0.81,0.35,1.21,0.52c0.1-0.34,0.21-0.68,0.31-1.01
			c-0.44-0.04-0.88-0.11-1.31-0.1C1045.19,429.65,1045.13,430.03,1045.06,430.23z M1125.08,780.33c-0.65-0.32-1.14-0.75-1.38-0.63
			c-0.34,0.16-0.66,0.72-0.66,1.11c0,0.29,0.51,0.58,0.8,0.87C1124.23,781.25,1124.63,780.82,1125.08,780.33z M1183.76,668.44
			c0.16-0.36,0.31-0.73,0.47-1.09c-0.2-0.08-0.55-0.26-0.57-0.23c-0.2,0.34-0.36,0.71-0.52,1.07
			C1183.34,668.27,1183.55,668.36,1183.76,668.44z M1142.32,1059.83c-0.21-0.41-0.33-0.99-0.67-1.18c-0.24-0.14-1.07,0.19-1.11,0.41
			c-0.07,0.39,0.26,0.85,0.42,1.28C1141.41,1060.18,1141.86,1060,1142.32,1059.83z M1154.83,472.32c-0.22-0.39-0.35-0.95-0.69-1.13
			c-0.26-0.14-0.77,0.18-1.17,0.29c0.17,0.41,0.25,1.07,0.52,1.16C1153.86,472.77,1154.37,472.46,1154.83,472.32z M1183.94,656.1
			c-0.1-0.22-0.18-0.61-0.31-0.63c-0.38-0.06-0.79,0.03-1.19,0.06c0.27,0.3,0.52,0.64,0.84,0.86
			C1183.39,656.46,1183.72,656.21,1183.94,656.1z M1331.09,1260.64c0.03,0.22-0.02,0.51,0.11,0.63c0.14,0.14,0.42,0.13,0.65,0.19
			c-0.03-0.35-0.06-0.69-0.09-1.04C1331.54,1260.5,1331.32,1260.57,1331.09,1260.64z M1046.47,661.54
			c-0.08,0.21-0.15,0.44-0.23,0.66c0.34,0.01,0.67,0.01,1.01,0.02c-0.07-0.23-0.09-0.49-0.23-0.66
			C1046.94,661.47,1046.66,661.54,1046.47,661.54z M1201.65,774.93c-0.08-0.21-0.17-0.41-0.25-0.62c-0.15,0.15-0.39,0.28-0.43,0.45
			c-0.03,0.17,0.15,0.38,0.23,0.58C1201.35,775.21,1201.5,775.07,1201.65,774.93z M1249.04,916.75c-0.14,0.18-0.28,0.35-0.42,0.53
			c0.36,0.18,0.71,0.41,1.1,0.52c0.1,0.03,0.3-0.3,0.45-0.47C1249.79,917.14,1249.42,916.95,1249.04,916.75z M1207.73,1106.79
			c-0.09-0.22-0.19-0.43-0.28-0.65c-0.13,0.19-0.36,0.37-0.38,0.57c-0.02,0.2,0.16,0.43,0.26,0.64
			C1207.47,1107.17,1207.6,1106.98,1207.73,1106.79z M1224.28,1118.76l0.21,0.56l0.23-0.56L1224.28,1118.76z M1065.19,530.96
			c-0.39-0.04-0.79-0.09-1.18-0.13c0.18,0.13,0.36,0.36,0.56,0.38C1064.76,531.23,1064.98,531.05,1065.19,530.96z M1420.87,904.44
			c-0.23,0.33-0.48,0.64-0.64,1c-0.04,0.08,0.27,0.43,0.45,0.45c0.18,0.02,0.56-0.23,0.55-0.32
			C1421.17,905.19,1421,904.82,1420.87,904.44z M1332.11,905.13c-0.06-0.17-0.12-0.34-0.18-0.51c-0.35,0.14-0.7,0.28-1.05,0.42
			c0.19,0.12,0.38,0.33,0.58,0.34C1331.67,905.4,1331.89,905.23,1332.11,905.13z M1302.32,887.79c0.14,0.17,0.34,0.52,0.42,0.49
			c0.36-0.11,0.68-0.33,1.02-0.51c-0.34-0.17-0.67-0.38-1.04-0.49C1302.64,887.26,1302.45,887.61,1302.32,887.79z M1379.45,810.02
			c-0.1-0.17-0.2-0.34-0.3-0.52c-0.14,0.11-0.41,0.28-0.4,0.31c0.14,0.26,0.33,0.51,0.5,0.75
			C1379.31,810.38,1379.38,810.2,1379.45,810.02z M1123.88,880.38c-0.21,0.52-0.42,0.95-0.52,1.41c-0.02,0.09,0.52,0.44,0.57,0.39
			c0.3-0.25,0.74-0.59,0.72-0.88C1124.64,880.99,1124.18,880.7,1123.88,880.38z M1391.08,477.6c-0.08,0.18-0.26,0.4-0.23,0.58
			c0.03,0.16,0.28,0.29,0.44,0.43c0.11-0.34,0.21-0.67,0.32-1.01C1391.43,477.6,1391.26,477.6,1391.08,477.6z M1159.71,696.87
			c-0.16,0.05-0.4,0.05-0.46,0.15c-0.1,0.17-0.08,0.42-0.12,0.63c0.28-0.07,0.56-0.13,0.84-0.2
			C1159.88,697.25,1159.79,697.06,1159.71,696.87z M1100.13,1004.84c-0.36,0.27-0.7,0.52-1.04,0.77c0.18,0.18,0.38,0.53,0.53,0.51
			c0.45-0.07,0.88-0.29,1.31-0.45C1100.67,1005.4,1100.4,1005.12,1100.13,1004.84z M1213.6,459.28c-0.35,0.2-0.71,0.4-1.06,0.61
			c0.16,0.16,0.36,0.48,0.46,0.45c0.36-0.11,0.67-0.33,1.01-0.51C1213.87,459.64,1213.73,459.46,1213.6,459.28z M1141.78,447.52
			c-0.11-0.18-0.18-0.45-0.33-0.51c-0.17-0.07-0.42,0.04-0.64,0.07c0.15,0.29,0.3,0.58,0.46,0.87
			C1141.44,447.8,1141.61,447.66,1141.78,447.52z M1065.17,1273.02c-0.1-0.16-0.18-0.41-0.32-0.45c-0.18-0.06-0.42,0.04-0.63,0.07
			c0.14,0.23,0.25,0.49,0.44,0.67C1064.69,1273.34,1064.99,1273.12,1065.17,1273.02z M1402.61,1272.73l-0.02,0.42l0.5-0.19
			L1402.61,1272.73z"/>
		<path d="M3424.55,1163.21c-2.32,2.46-2.22,4.87-2.12,7.14c0.33,7.87-1.11,15.38-4.05,22.64c-0.38,0.95-0.69,1.95-0.89,2.95
			c-0.68,3.41,2.17,6.24,5.48,5.22c1.92-0.59,3.7-1.74,5.43-2.81c2.59-1.6,4.81-3.82,7.6-4.75c2.21,0.96,2.77,2.64,2.96,4.45
			c0.16,1.53,0.12,3.09,0.12,4.63c0.01,19.58-0.08,39.17,0.06,58.75c0.04,5.87-1.53,11.17-4.25,16.22
			c-3.08,5.72-7.79,9.47-13.98,11.44c-5.15,1.64-10.33,3.2-15.38,5.09c-6.13,2.3-12.3,3.56-18.89,2.89
			c-6.29-0.64-12.39,0.57-17.96,3.52c-5.43,2.87-10.59,2.96-16.25,0.53c-7.43-3.18-15.43-3.92-23.46-3.98
			c-11.85-0.09-23.69-0.24-35.54-0.21c-7.8,0.02-15.4-1.02-22.85-3.3c-10.68-3.27-21.31-3.08-31.89,0.52
			c-5.41,1.84-10.98,2.75-16.69,2.75c-23.45,0-46.9,0.08-70.35-0.07c-4.35-0.03-8.78-0.57-13-1.57c-4.2-1-8.16-0.88-12.12,0.5
			c-4.91,1.72-9.58,1.62-14.05-1.28c-2.16-1.4-4.49-1.36-6.59-0.06c-3.94,2.44-8.24,2.52-12.66,2.51
			c-42.52-0.04-85.03-0.01-127.55-0.07c-3.06,0-6.23-0.15-9.15-0.94c-5.87-1.6-8.41-5.17-8.69-11.27
			c-0.44-9.78-1.08-19.55-1.21-29.33c-0.11-8.52,0.61-17.05,4.06-24.99c2.1-4.82,2.38-9.27-0.22-14.03
			c-2.74-5.02-2.58-10.64-0.95-15.84c3.76-12.03,4.36-24.26,3.72-36.69c-0.15-2.83-0.07-5.67-0.07-8.5
			c0-110.54,0.02-221.09-0.04-331.63c-0.01-10.13,0.51-20.04,4.98-29.42c2.1-4.41,1.24-9.1-0.12-13.62
			c-0.52-1.72-1.36-3.34-1.97-5.03c-1.71-4.77-2.3-9.48,0.58-14.11c1.57-2.53,1.69-5.18,0.61-8.12
			c-4.37-11.81-5.04-24.12-4.43-36.56c0.15-3.09,0.45-6.18,0.36-9.26c-0.26-8.1,1.26-15.76,4.07-23.4c3.57-9.69,3.59-19.68,0-29.52
			c-2.41-6.6-3.54-13.39-3.56-20.44c-0.05-21.64-0.23-43.28-0.36-64.92c-0.04-7.54-0.81-14.94-4.49-21.71
			c-1.56-2.86-1.56-5.94-1.57-9.02c-0.03-6.95,0.06-13.89-0.05-20.84c-0.1-6.21-0.89-12.28-3.77-17.98c-1-1.98-1.51-4.41-1.52-6.64
			c-0.13-24.73-0.16-49.47-0.08-74.2c0.01-3.31,0.39-6.72,1.23-9.92c2.03-7.75,6.87-13.11,14.63-15.62
			c6.61-2.14,13.2-4.37,19.83-6.44c4.68-1.46,9.42-2.54,14.4-2.59c5.24-0.06,10.31,0.54,14.95,3.11c2.58,1.43,5.27,1.83,8.17,1.8
			c7.73-0.08,15.46-0.08,23.19,0c2.88,0.03,5.59-0.3,8.2-1.68c5.83-3.08,12.19-4.02,18.69-4.1c3.6-0.05,7.21,0.25,10.81,0.29
			c6.94,0.09,13.91,0.49,20.83,0.05c7.01-0.45,13.92,0.02,20.79,1.05c15.51,2.32,24.63,12.93,24.93,28.59
			c0.1,5.17-0.17,10.2-2.08,15.17c-3.19,8.33-3.12,17.19-3.17,25.94c-0.07,10.82,0.3,21.64,0.33,32.45
			c0.02,6.49,0.51,12.83,3.05,18.93c1.81,4.36,1.83,9.05,1.83,13.7c0.01,20.61-0.09,41.23,0.1,61.84
			c0.21,23.18,0.72,46.36,1.02,69.55c0.07,5.15-0.17,10.3-0.26,15.45c-0.1,5.46,0.28,10.82,3.14,15.7c1.61,2.75,2.06,5.79,2.07,8.93
			c0.01,2.58,0.05,5.15,0.05,7.73c-0.03,45.87-0.05,91.73-0.11,137.6c-0.01,9.35,0.78,18.53,4.82,27.15
			c1.36,2.9,1.74,6.05,0.83,9.07c-3.26,10.72-1.78,21.49-0.4,32.21c0.82,6.42,0.98,12.8,0.86,19.26
			c-0.2,10.56,0.12,21.12,0.11,31.68c-0.03,25.5-0.1,51.01-0.23,76.51c-0.03,5.68-0.82,11.26-2.46,16.76
			c-0.56,1.86-0.64,4.17-0.07,6.01c1.86,6.01,2.03,12.2,2.26,18.36c0.32,8.7,2.5,16.72,7.12,24.15c2.45,3.93,4.39,8.16,6.77,12.14
			c1.31,2.19,2.77,4.45,4.67,6.09c1.66,1.43,3.95,2.49,6.12,2.9c6.06,1.15,12.19,2.01,18.32,2.73c3.04,0.36,6.23,0.62,9.21,0.12
			c10.99-1.84,22.03-2.18,33.13-1.84c2.06,0.06,4.13-0.04,6.18,0.07c15.87,0.84,11.77-1.47,26.22,4.86
			c5.71,2.5,11.34,2.61,17.01-0.77c4.28-2.55,9.31-3,14.22-3.07c6.02-0.08,11.7-1.34,17.28-3.57c8.03-3.21,16.53-3.79,25.07-3.62
			c4.89,0.1,9.77,0.59,14.65,1.02c1.77,0.16,3.72,0.24,5.21,1.05c3.17,1.72,6.31,2.04,9.7,1.11c2.31-0.64,4.58-0.7,6.74,0.53
			c2.03,1.15,3.99,0.52,5.94-0.23c5.53-2.12,11.09-4.17,16.55-6.44c3.38-1.41,6.83-2.23,10.47-2.41c2.76-0.13,5.01,0.69,6.83,2.85
			c5.36,6.39,9.71,13.33,11.63,21.55c0.59,2.53,1.02,4.95,3.26,6.75c0.87,0.7,1.26,2.19,1.55,3.4c1.53,6.34,1.24,12.8,0.96,19.23
			c-0.11,2.53-2.18,4.34-4.72,4.07c-2.23-0.24-4.39-1.17-6.57-1.82C3426.67,1163.94,3425.71,1163.59,3424.55,1163.21z
			 M3349.82,1185.97c0.26,0.02,0.55-0.02,0.76,0.08c12.47,5.98,26.16,7.17,39.42,10.03c3.66,0.79,6.09-1.15,6.18-4.84
			c0.04-1.7-0.33-3.66-1.2-5.08c-2.21-3.59-5.3-6.25-9.68-7c-7.57-1.29-15.3-1.68-22.69-4.14c-1.43-0.47-3.79,0.12-5.01,1.11
			c-3.32,2.68-6.7,5.49-7.63,10.03c-5.35-1.28-5.5-1.24-9.06,2.65c1.19,0.51,2.23,1.34,3.25,1.32
			C3346.9,1190.08,3348.82,1188.57,3349.82,1185.97z M3433.49,1137.76c-5.07-0.38-8.89-0.33-12.65,0.53
			c-2.78,0.63-4.41,3.14-3.54,5.83c0.69,2.14,1.87,4.21,3.2,6.06c2.57,3.58,5.06,3.85,8.35,0.88c1.26-1.14,2.35-2.78,2.86-4.39
			C3432.54,1144.01,3432.84,1141.2,3433.49,1137.76z M3409.25,1172.07c2.59-1.73,4.42-2.96,6.7-4.48c-2.07-1.94-3.63-3.62-5.42-5.01
			c-1.34-1.04-3.81-0.48-4.9,0.81c-1.12,1.33-1.25,2.93-0.37,4.28C3406.2,1169.1,3407.57,1170.26,3409.25,1172.07z M3364.73,1129.37
			c1.86,1.86,3.38,3.5,5.05,4.97c0.43,0.38,1.58,0.53,2,0.22c0.73-0.54,1.56-1.47,1.63-2.3c0.2-2.18-0.95-3.85-2.87-4.86
			C3368.42,1126.27,3366.71,1127,3364.73,1129.37z M3367.15,1244.28c-0.74-1.09-1.09-2.04-1.78-2.49c-0.83-0.54-2.3,0.87-2.1,2.23
			c0.1,0.71,0.96,1.74,1.58,1.82C3365.46,1245.92,3366.2,1244.98,3367.15,1244.28z M2962.5,1241.68c-0.11-0.41-0.22-0.82-0.33-1.23
			c-0.2,0.08-0.57,0.21-0.56,0.24c0.11,0.41,0.27,0.81,0.41,1.21C2962.18,1241.82,2962.34,1241.75,2962.5,1241.68z M3258.97,1223.29
			c-0.15-0.18-0.35-0.55-0.45-0.52c-0.41,0.1-0.79,0.32-1.19,0.49c0.14,0.19,0.33,0.58,0.41,0.55
			C3258.17,1223.7,3258.57,1223.48,3258.97,1223.29z M3425.09,1217.45c-0.18-0.15-0.37-0.31-0.55-0.46
			c-0.16,0.39-0.38,0.76-0.46,1.16c-0.03,0.14,0.29,0.35,0.45,0.52C3424.72,1218.27,3424.91,1217.86,3425.09,1217.45z"/>
	</g>
	<path d="M129.08,120.07v1439.39h4638.2V120.07H129.08z M3572.67,1452.92H254.35V228.42h3318.32V1452.92z M4418.2,1306.17
		l-163.63-203.36l-155.42,203.36h-212.51l262-302.67L3906.6,671.93h107.05c46.65,0,84.46-37.81,84.46-84.46
		c0-23.32-9.45-44.43-24.74-59.71c-15.28-15.29-36.39-24.74-59.72-24.74h-112.34v444.19l-184.45,3.33v-570.1h288.61
		c0,0,232.41-17.37,269.89,160.06c0,0,34.89,146.85-135.24,199.11l122.02,157.01l124.85-161.74h216.73l-229.03,269.56l256.33,301.73
		H4418.2z"/>
</g>
</svg>
